<?xml version="1.0" encoding="utf-8"?>
<!-- Generator: Adobe Illustrator 27.4.1, SVG Export Plug-In . SVG Version: 6.00 Build 0)  -->
<svg version="1.1" id="Layer_1" xmlns="http://www.w3.org/2000/svg" xmlns:xlink="http://www.w3.org/1999/xlink" x="0px" y="0px"
	 viewBox="0 0 4081 2886.1" style="enable-background:new 0 0 4081 2886.1;" xml:space="preserve">
<style type="text/css">
	.st0{fill:#DDD7D7;}
	.st1{fill:#2C5871;}
	.st2{fill:#EDEAEA;}
	.st3{fill:#F1F1F1;}
	.st4{fill:#B4B5B5;}
	.st5{fill:#747575;}
	.st6{fill:#F89F4D;}
	.st7{fill:#EB7425;}
	.st8{fill:#F89F4A;}
	.st9{fill:#C25B28;}
	.st10{fill:#BA2727;}
	.st11{fill:#DDC390;}
	.st12{fill:#D4BB8C;}
	.st13{fill:#EED69E;}
	.st14{fill:#47474A;}
	.st15{fill:#66C6C6;}
	.st16{fill:#0F202A;}
	.st17{fill:#888586;}
	.st18{fill:#737474;}
	.st19{fill:none;}
	.st20{fill:#908F8D;}
	.st21{fill:#959897;}
	.st22{fill:#8C8D8A;}
	.st23{fill:#808080;}
	.st24{fill:#808482;}
	.st25{fill:#757A78;}
	.st26{fill:#BA2927;}
	.st27{fill:#AB2225;}
	.st28{fill:#807F7F;}
	.st29{fill:#666766;}
	.st30{fill:#716E70;}
	.st31{fill:#5C5C5D;}
	.st32{fill:#4B4A4C;}
	.st33{fill:#626463;}
	.st34{fill:#983020;}
	.st35{fill:#FFFFFF;}
	.st36{fill:#3A626D;}
	.st37{fill:#2B4955;}
</style>
<g>
	<g>
		<g>
			<polygon class="st0" points="2388.3,193 2210.7,140.1 2052.5,93 1894.3,140.1 1696,199.1 58.7,686.7 58.7,780.9 86.8,772.6 
				4008.7,772.6 4008.7,769.7 4008.7,675.5 			"/>
			<polygon class="st1" points="86.8,772.6 58.7,780.9 58.7,2319.9 4008.7,2319.9 4008.7,772.6 			"/>
		</g>
		<rect x="58.7" y="695.5" class="st2" width="86.1" height="1624.5"/>
		<rect x="3922.6" y="695.5" class="st3" width="86.1" height="1624.5"/>
	</g>
	<g>
		<rect x="325.9" y="993.1" class="st4" width="48.4" height="1326.8"/>
		<rect x="1457.3" y="993.1" class="st4" width="48.4" height="1326.8"/>
	</g>
	<rect x="252.4" y="1306.9" class="st5" width="1326.8" height="48.4"/>
	<rect x="252.4" y="2024.1" class="st5" width="1326.8" height="48.4"/>
	<g>
		<g>
			<g>
				<polygon class="st6" points="419.3,1302.7 651.1,1302.7 419.3,1130.1 				"/>
				<polygon class="st7" points="740.3,1039.9 419.3,1039.9 419.3,1130.1 651.1,1302.7 740.3,1302.7 				"/>
			</g>
			<rect x="412.2" y="1030.5" class="st8" width="335.2" height="94.4"/>
			<g>
				<g>
					<g>
						<polygon class="st9" points="435.5,1296.2 454.5,1296.2 456.5,1296.2 459.2,1296.2 459.2,1288.1 454.5,1288.1 454.5,1291.5 
							435.5,1291.5 435.5,1288.1 430.8,1288.1 430.8,1296.2 433.9,1296.2 						"/>
					</g>
					<g>
						<polygon class="st9" points="439.7,1288.1 450.3,1288.1 450.3,1271.9 455,1271.9 445,1261.5 435,1271.9 439.7,1271.9 						
							"/>
					</g>
				</g>
			</g>
			<path class="st9" d="M495.5,1271.7v-8.4h-4.9l-1.4,5l2,0.7l-3,8.3l1.8-7.9l-2.2-0.4l1.3-5.8h-9.7v8.4c0,4.9,3,9,6.8,9.8v13.2
				h-3.9c-0.4,0-0.8,0.4-0.8,0.8c0,0.4,0.3,0.8,0.8,0.8h10.4c0.4,0,0.8-0.4,0.8-0.8s-0.3-0.8-0.8-0.8h-3.9v-13.2
				C492.5,1280.7,495.5,1276.6,495.5,1271.7z"/>
			<path class="st9" d="M533.4,1265.5C533.4,1265.5,533.4,1265.4,533.4,1265.5c-0.8-0.2-1.6-0.3-2.4-0.3v0v-0.7
				c0-0.8-0.6-1.4-1.4-1.4c-0.8,0-1.4,0.6-1.4,1.4v0.7v0c-13.3,0.9-14,15.1-14,15.1h8.9h5.1v12.1c0,0,0,0,0,0c0,0.2-0.2,1.1-1.3,1.1
				c-0.3,0-0.6-0.1-0.8-0.3c-0.5-0.5-0.7-1.5-0.7-1.7c0-0.8-0.6-1.4-1.3-1.4c-0.7,0-1.4,0.6-1.4,1.3c0,0.6,0.2,2.4,1.4,3.7
				c0.7,0.8,1.7,1.2,2.8,1.2c2.9,0,3.9-2.3,4-3.6c0-0.1,0-0.2,0-0.2c0,0,0,0,0-0.1v-12.1h14C545.1,1280.2,544.4,1267.8,533.4,1265.5
				z M523.9,1268.6c-0.3,0.2-0.7,0.5-1.1,0.8c-0.4,0.3-0.7,0.6-1.1,1c-0.2,0.2-0.3,0.4-0.5,0.5c-0.2,0.2-0.3,0.4-0.5,0.6
				c-0.3,0.4-0.6,0.8-0.9,1.2c-0.1,0.2-0.3,0.4-0.4,0.6c-0.1,0.2-0.2,0.4-0.3,0.6c-0.1,0.2-0.2,0.4-0.3,0.6
				c-0.1,0.2-0.2,0.4-0.3,0.6c-0.2,0.4-0.3,0.8-0.4,1.1c-0.1,0.4-0.2,0.7-0.3,1c-0.1,0.3-0.2,0.6-0.2,0.8c-0.1,0.4-0.2,0.7-0.2,0.7
				s0-0.2,0-0.7c0-0.2,0-0.5,0.1-0.8c0-0.3,0.1-0.7,0.2-1c0.1-0.4,0.2-0.8,0.3-1.2c0.1-0.2,0.1-0.4,0.2-0.6c0.1-0.2,0.2-0.4,0.3-0.7
				c0.1-0.2,0.2-0.4,0.3-0.7c0.1-0.1,0.1-0.2,0.2-0.3l0.2-0.3c0.3-0.4,0.6-0.9,0.9-1.3c0.2-0.2,0.3-0.4,0.5-0.6
				c0.2-0.2,0.3-0.4,0.5-0.6c0.4-0.4,0.8-0.7,1.1-1c0.8-0.6,1.6-1.1,2.2-1.4c0.7-0.3,1.3-0.6,1.7-0.7c0.4-0.1,0.7-0.2,0.7-0.2
				s-1,0.4-2.2,1.2C524.6,1268.1,524.3,1268.4,523.9,1268.6z M528.3,1267.2c-0.1,0.2-0.2,0.4-0.3,0.6c-0.1,0.2-0.2,0.5-0.3,0.8
				c-0.1,0.3-0.2,0.6-0.3,0.9c-0.1,0.3-0.2,0.7-0.4,1c-0.1,0.4-0.2,0.7-0.3,1.1c-0.1,0.4-0.2,0.8-0.3,1.1c-0.1,0.4-0.2,0.8-0.3,1.2
				c-0.1,0.4-0.2,0.8-0.2,1.1c-0.1,0.4-0.1,0.7-0.2,1.1c-0.1,0.3-0.1,0.7-0.1,1s-0.1,0.6-0.1,0.8c0,0.2-0.1,0.5-0.1,0.6
				c-0.1,0.4-0.1,0.6-0.1,0.6s0-0.2,0-0.6c0-0.2,0-0.4,0-0.6s0-0.5,0-0.8s0-0.6,0-1s0.1-0.7,0.1-1.1c0.1-0.4,0.1-0.8,0.2-1.2
				c0.1-0.4,0.2-0.8,0.3-1.2c0.1-0.4,0.2-0.8,0.3-1.2c0.1-0.4,0.2-0.8,0.4-1.1c0.1-0.2,0.1-0.4,0.2-0.5s0.2-0.3,0.2-0.5
				c0.1-0.3,0.3-0.6,0.5-0.9C527.7,1267.9,528,1267.5,528.3,1267.2c0.1-0.3,0.3-0.5,0.3-0.5S528.4,1266.9,528.3,1267.2z
				 M533.9,1277.8c0,0.2,0,0.5,0,0.6c0,0.4,0,0.6,0,0.6s0-0.2-0.1-0.6c0-0.2-0.1-0.4-0.1-0.6c0-0.2-0.1-0.5-0.1-0.8
				c0-0.3-0.1-0.6-0.1-1c-0.1-0.3-0.1-0.7-0.2-1.1c-0.1-0.4-0.2-0.7-0.2-1.1c-0.1-0.4-0.2-0.8-0.3-1.2c-0.1-0.4-0.2-0.8-0.3-1.1
				c-0.1-0.4-0.2-0.8-0.3-1.1c-0.1-0.4-0.2-0.7-0.4-1c-0.1-0.3-0.2-0.6-0.3-0.9c-0.1-0.3-0.2-0.5-0.3-0.8c-0.1-0.2-0.2-0.4-0.3-0.6
				c-0.2-0.3-0.3-0.5-0.3-0.5s0.1,0.1,0.4,0.4s0.5,0.7,0.8,1.2c0.1,0.3,0.3,0.6,0.5,0.9c0.1,0.2,0.2,0.3,0.2,0.5
				c0.1,0.2,0.1,0.4,0.2,0.5c0.2,0.4,0.3,0.7,0.4,1.1c0.1,0.4,0.2,0.8,0.3,1.2c0.1,0.4,0.2,0.8,0.2,1.2s0.1,0.8,0.2,1.2
				c0,0.4,0.1,0.8,0.1,1.1s0,0.7,0,1C534,1277.3,534,1277.6,533.9,1277.8z M541.3,1277.3c-0.1-0.3-0.2-0.6-0.3-1
				c-0.1-0.4-0.2-0.7-0.4-1.1c-0.1-0.2-0.2-0.4-0.3-0.6s-0.2-0.4-0.3-0.6c-0.1-0.2-0.2-0.4-0.3-0.6c-0.1-0.2-0.2-0.4-0.4-0.6
				c-0.3-0.4-0.6-0.8-0.9-1.2c-0.2-0.2-0.3-0.4-0.5-0.6c-0.2-0.2-0.3-0.4-0.5-0.5c-0.3-0.4-0.7-0.7-1.1-1c-0.4-0.3-0.7-0.6-1.1-0.8
				c-0.3-0.2-0.7-0.5-1-0.7c-1.3-0.8-2.2-1.2-2.2-1.2s0.2,0,0.7,0.2c0.4,0.1,1,0.4,1.7,0.7c0.7,0.3,1.5,0.8,2.2,1.4
				c0.4,0.3,0.8,0.6,1.1,1c0.2,0.2,0.4,0.4,0.5,0.6c0.2,0.2,0.3,0.4,0.5,0.6c0.3,0.4,0.6,0.8,0.9,1.3l0.2,0.3
				c0.1,0.1,0.1,0.2,0.2,0.3c0.1,0.2,0.2,0.4,0.3,0.7c0.1,0.2,0.2,0.4,0.3,0.7c0.1,0.2,0.2,0.4,0.2,0.6c0.2,0.4,0.2,0.8,0.3,1.2
				c0.1,0.4,0.2,0.7,0.2,1s0.1,0.6,0.1,0.8c0,0.4,0,0.7,0,0.7s-0.1-0.2-0.2-0.7C541.5,1277.9,541.4,1277.7,541.3,1277.3z"/>
		</g>
		<rect x="451.1" y="1030.5" class="st10" width="53.1" height="94.3"/>
		<rect x="655.3" y="1030.5" class="st10" width="53.1" height="94.6"/>
		<g>
			<g>
				<polygon class="st9" points="656.7,1149.8 656.7,1185.3 660.6,1185.3 660.6,1149.8 660.6,1138 656.7,1138 				"/>
				<rect x="680" y="1138" class="st9" width="2.3" height="47.3"/>
				<rect x="686" y="1138" class="st9" width="9.7" height="47.3"/>
				<rect x="711.3" y="1138" class="st9" width="3.2" height="47.3"/>
				<rect x="704.7" y="1138" class="st9" width="2.1" height="47.3"/>
				<rect x="717.3" y="1138" class="st9" width="4.3" height="47.3"/>
				<rect x="671.5" y="1138" class="st9" width="4.7" height="47.3"/>
				<rect x="662.9" y="1138" class="st9" width="2.2" height="47.3"/>
				<rect x="666.6" y="1138" class="st9" width="2.1" height="47.3"/>
				<rect x="699.6" y="1138" class="st9" width="2.1" height="47.3"/>
			</g>
		</g>
	</g>
	<g>
		<g>
			<g>
				<polygon class="st6" points="803,1302.7 1064.3,1302.7 803,1108.2 				"/>
				<polygon class="st7" points="1164.8,1006.5 803,1006.5 803,1108.2 1064.3,1302.7 1164.8,1302.7 				"/>
			</g>
			<rect x="795" y="995.8" class="st8" width="377.8" height="106.4"/>
			<g>
				<g>
					<g>
						<polygon class="st9" points="821.3,1295.4 842.7,1295.4 845,1295.4 848.1,1295.4 848.1,1286.2 842.7,1286.2 842.7,1290.1 
							821.3,1290.1 821.3,1286.2 816,1286.2 816,1295.4 819.4,1295.4 						"/>
					</g>
					<g>
						<polygon class="st9" points="826.1,1286.2 838,1286.2 838,1267.9 843.3,1267.9 832,1256.3 820.7,1267.9 826.1,1267.9 						
							"/>
					</g>
				</g>
			</g>
			<path class="st9" d="M888.9,1267.8v-9.5h-5.5l-1.6,5.6l2.2,0.8l-3.4,9.4l2-8.9l-2.5-0.4l1.4-6.6h-10.9v9.5c0,5.6,3.3,10.2,7.7,11
				v14.8h-4.4c-0.5,0-0.9,0.4-0.9,0.9s0.4,0.9,0.9,0.9h11.7c0.5,0,0.9-0.4,0.9-0.9s-0.4-0.9-0.9-0.9h-4.4v-14.8
				C885.5,1277.9,888.9,1273.3,888.9,1267.8z"/>
			<path class="st9" d="M931.7,1260.7C931.6,1260.7,931.6,1260.7,931.7,1260.7c-0.9-0.2-1.8-0.3-2.7-0.4v0v-0.8
				c0-0.9-0.7-1.5-1.5-1.5c-0.8,0-1.6,0.7-1.6,1.5v0.7v0.1c-15,1-15.8,17-15.8,17h10h5.8v13.7c0,0,0,0,0,0c0,0.3-0.3,1.2-1.5,1.2
				c-0.4,0-0.6-0.1-0.9-0.3c-0.6-0.6-0.8-1.7-0.8-1.9c0-0.9-0.6-1.6-1.5-1.6c-0.8,0-1.6,0.6-1.6,1.5c0,0.6,0.2,2.7,1.6,4.2
				c0.8,0.9,1.9,1.3,3.1,1.3c3.2,0,4.4-2.6,4.5-4c0-0.1,0-0.2,0-0.3c0,0,0-0.1,0-0.1v-13.7h15.8
				C944.8,1277.4,944.1,1263.3,931.7,1260.7z M921,1264.3c-0.4,0.3-0.8,0.6-1.2,0.9c-0.4,0.3-0.8,0.7-1.2,1.1
				c-0.2,0.2-0.4,0.4-0.6,0.6c-0.2,0.2-0.4,0.4-0.5,0.6c-0.3,0.4-0.7,0.9-1,1.4c-0.2,0.2-0.3,0.5-0.4,0.7c-0.1,0.2-0.3,0.5-0.4,0.7
				c-0.1,0.2-0.2,0.5-0.3,0.7s-0.2,0.5-0.3,0.7c-0.2,0.4-0.3,0.9-0.5,1.3c-0.1,0.4-0.2,0.8-0.3,1.1s-0.2,0.6-0.2,0.9
				c-0.1,0.5-0.2,0.8-0.2,0.8s0-0.3,0-0.8c0-0.2,0.1-0.6,0.1-0.9c0-0.4,0.1-0.7,0.2-1.2c0.1-0.4,0.2-0.9,0.4-1.4
				c0.1-0.2,0.2-0.5,0.3-0.7c0.1-0.2,0.2-0.5,0.3-0.8c0.1-0.2,0.2-0.5,0.4-0.8c0.1-0.1,0.1-0.2,0.2-0.4l0.2-0.4c0.3-0.5,0.7-1,1-1.4
				c0.2-0.2,0.4-0.4,0.6-0.7c0.2-0.2,0.4-0.4,0.6-0.6c0.4-0.4,0.8-0.8,1.3-1.1c0.9-0.7,1.8-1.2,2.5-1.6c0.8-0.4,1.5-0.6,1.9-0.8
				c0.5-0.1,0.8-0.2,0.8-0.2s-1.1,0.4-2.5,1.3C921.7,1263.7,921.3,1264,921,1264.3z M925.9,1262.7c-0.1,0.2-0.2,0.4-0.3,0.6
				c-0.1,0.2-0.2,0.5-0.4,0.9c-0.1,0.3-0.3,0.6-0.4,1c-0.1,0.4-0.3,0.8-0.4,1.1c-0.2,0.4-0.2,0.8-0.4,1.2c-0.1,0.4-0.2,0.9-0.3,1.3
				c-0.1,0.4-0.2,0.9-0.3,1.3c-0.1,0.4-0.2,0.9-0.3,1.3c-0.1,0.4-0.1,0.8-0.2,1.2c-0.1,0.4-0.1,0.8-0.2,1.1
				c-0.1,0.3-0.1,0.6-0.1,0.9c0,0.3-0.1,0.5-0.1,0.7c-0.1,0.4-0.1,0.6-0.1,0.6s0-0.2-0.1-0.6c0-0.2,0-0.4,0-0.7s0-0.6,0-0.9
				c0-0.3,0-0.7,0-1.1c0-0.4,0.1-0.8,0.1-1.2c0.1-0.4,0.1-0.9,0.2-1.3c0.1-0.4,0.2-0.9,0.3-1.3c0.1-0.4,0.2-0.9,0.4-1.3
				c0.2-0.4,0.3-0.9,0.4-1.2c0.1-0.2,0.2-0.4,0.2-0.6c0.1-0.2,0.2-0.4,0.3-0.6c0.2-0.4,0.3-0.7,0.5-1c0.3-0.6,0.7-1.1,0.9-1.4
				c0.2-0.3,0.4-0.5,0.4-0.5S926.1,1262.4,925.9,1262.7z M932.3,1274.7c0,0.3,0,0.5,0,0.7c0,0.4-0.1,0.6-0.1,0.6s0-0.2-0.1-0.6
				c0-0.2-0.1-0.4-0.1-0.7c0-0.3-0.1-0.6-0.1-0.9s-0.1-0.7-0.2-1.1c-0.1-0.4-0.1-0.8-0.2-1.2s-0.2-0.8-0.3-1.3
				c-0.1-0.4-0.2-0.9-0.3-1.3c-0.1-0.4-0.2-0.9-0.3-1.3c-0.1-0.4-0.2-0.8-0.4-1.2c-0.1-0.4-0.3-0.8-0.4-1.1c-0.1-0.4-0.3-0.7-0.4-1
				c-0.1-0.3-0.2-0.6-0.4-0.9s-0.2-0.5-0.3-0.6c-0.2-0.4-0.3-0.6-0.3-0.6s0.2,0.2,0.4,0.5s0.6,0.8,0.9,1.4c0.2,0.3,0.3,0.6,0.5,1
				c0.1,0.2,0.2,0.4,0.3,0.6c0.1,0.2,0.2,0.4,0.2,0.6c0.2,0.4,0.3,0.8,0.5,1.2c0.1,0.4,0.3,0.9,0.4,1.3c0.1,0.4,0.2,0.9,0.3,1.3
				c0.1,0.4,0.2,0.9,0.2,1.3c0.1,0.4,0.1,0.8,0.1,1.2c0,0.4,0,0.8,0,1.1C932.3,1274.1,932.3,1274.4,932.3,1274.7z M940.6,1274.1
				c-0.1-0.3-0.2-0.7-0.3-1.1c-0.2-0.4-0.3-0.8-0.5-1.3c-0.1-0.2-0.2-0.5-0.3-0.7s-0.2-0.5-0.3-0.7c-0.1-0.2-0.2-0.5-0.4-0.7
				c-0.1-0.2-0.3-0.5-0.4-0.7c-0.3-0.5-0.6-0.9-1-1.4c-0.2-0.2-0.4-0.4-0.5-0.6c-0.2-0.2-0.4-0.4-0.6-0.6c-0.4-0.4-0.8-0.8-1.2-1.1
				c-0.4-0.3-0.8-0.7-1.2-0.9c-0.4-0.3-0.8-0.5-1.1-0.8c-1.4-0.9-2.5-1.3-2.5-1.3s0.3,0.1,0.8,0.2s1.2,0.4,1.9,0.8
				c0.8,0.4,1.7,0.9,2.5,1.6c0.4,0.3,0.9,0.7,1.3,1.1c0.2,0.2,0.4,0.4,0.6,0.6c0.2,0.2,0.4,0.4,0.6,0.7c0.4,0.5,0.7,0.9,1,1.4
				l0.2,0.4c0.1,0.1,0.1,0.2,0.2,0.4c0.1,0.2,0.3,0.5,0.4,0.8c0.1,0.2,0.2,0.5,0.3,0.8c0.1,0.2,0.2,0.5,0.3,0.7
				c0.2,0.5,0.3,0.9,0.4,1.4c0.1,0.4,0.2,0.8,0.2,1.2c0,0.4,0.1,0.7,0.1,0.9c0,0.5,0,0.8,0,0.8s-0.1-0.3-0.2-0.8
				C940.8,1274.8,940.7,1274.5,940.6,1274.1z"/>
		</g>
		<rect x="838.9" y="995.8" class="st10" width="59.9" height="106.3"/>
		<rect x="1069" y="995.8" class="st10" width="59.9" height="106.6"/>
		<g>
			<g>
				<polygon class="st9" points="1070.7,1130.3 1070.7,1170.4 1075,1170.4 1075,1130.3 1075,1117.1 1070.7,1117.1 				"/>
				<rect x="1096.9" y="1117.1" class="st9" width="2.6" height="53.3"/>
				<rect x="1103.6" y="1117.1" class="st9" width="10.9" height="53.3"/>
				<rect x="1132.1" y="1117.1" class="st9" width="3.6" height="53.3"/>
				<rect x="1124.7" y="1117.1" class="st9" width="2.3" height="53.3"/>
				<rect x="1138.9" y="1117.1" class="st9" width="4.9" height="53.3"/>
				<rect x="1087.3" y="1117.1" class="st9" width="5.3" height="53.3"/>
				<rect x="1077.6" y="1117.1" class="st9" width="2.4" height="53.3"/>
				<rect x="1081.8" y="1117.1" class="st9" width="2.4" height="53.3"/>
				<rect x="1118.9" y="1117.1" class="st9" width="2.4" height="53.3"/>
			</g>
		</g>
	</g>
	<g>
		<g>
			<g>
				<polygon class="st6" points="754.2,2020.3 971.3,2020.3 754.2,1858.7 				"/>
				<polygon class="st7" points="1054.8,1774.2 754.2,1774.2 754.2,1858.7 971.3,2020.3 1054.8,2020.3 				"/>
			</g>
			<rect x="747.6" y="1765.3" class="st8" width="313.9" height="88.4"/>
			<g>
				<g>
					<g>
						<polygon class="st9" points="769.4,2014.2 787.2,2014.2 789.1,2014.2 791.7,2014.2 791.7,2006.6 787.2,2006.6 787.2,2009.8 
							769.4,2009.8 769.4,2006.6 765,2006.6 765,2014.2 767.9,2014.2 						"/>
					</g>
					<g>
						<polygon class="st9" points="773.4,2006.6 783.3,2006.6 783.3,1991.4 787.7,1991.4 778.3,1981.7 769,1991.4 773.4,1991.4 
													"/>
					</g>
				</g>
			</g>
			<path class="st9" d="M825.6,1991.3v-7.9H821l-1.3,4.7l1.9,0.7l-2.8,7.8l1.7-7.4l-2.1-0.3l1.2-5.4h-9.1v7.9c0,4.6,2.8,8.4,6.4,9.1
				v12.3h-3.7c-0.4,0-0.7,0.3-0.7,0.7s0.3,0.7,0.7,0.7h9.7c0.4,0,0.7-0.3,0.7-0.7s-0.3-0.7-0.7-0.7h-3.7v-12.3
				C822.8,1999.7,825.6,1995.9,825.6,1991.3z"/>
			<path class="st9" d="M861.1,1985.4C861.1,1985.4,861.1,1985.4,861.1,1985.4c-0.8-0.2-1.5-0.3-2.2-0.3v0v-0.6
				c0-0.7-0.6-1.3-1.3-1.3c-0.7,0-1.3,0.6-1.3,1.3v0.6v0c-12.5,0.9-13.1,14.1-13.1,14.1h8.3h4.8v11.4c0,0,0,0,0,0c0,0.2-0.2,1-1.2,1
				c-0.3,0-0.5-0.1-0.7-0.3c-0.5-0.5-0.6-1.4-0.6-1.6c0-0.7-0.5-1.3-1.2-1.3s-1.3,0.5-1.3,1.2c0,0.5,0.2,2.3,1.3,3.5
				c0.7,0.7,1.6,1.1,2.6,1.1c2.7,0,3.6-2.2,3.8-3.3c0-0.1,0-0.1,0-0.2c0,0,0,0,0-0.1v-11.4h13.2
				C872,1999.2,871.4,1987.6,861.1,1985.4z M852.2,1988.3c-0.3,0.2-0.7,0.5-1,0.8c-0.3,0.3-0.7,0.6-1,0.9c-0.2,0.2-0.3,0.3-0.5,0.5
				c-0.2,0.2-0.3,0.4-0.4,0.5c-0.3,0.4-0.6,0.7-0.8,1.1c-0.1,0.2-0.2,0.4-0.4,0.6c-0.1,0.2-0.2,0.4-0.3,0.6
				c-0.1,0.2-0.2,0.4-0.3,0.6c-0.1,0.2-0.2,0.4-0.2,0.6c-0.2,0.4-0.3,0.7-0.4,1.1c-0.1,0.3-0.2,0.6-0.3,0.9
				c-0.1,0.3-0.1,0.5-0.2,0.7c-0.1,0.4-0.1,0.6-0.1,0.6s0-0.2,0-0.7c0-0.2,0-0.5,0.1-0.8c0-0.3,0.1-0.6,0.2-1
				c0.1-0.4,0.2-0.7,0.3-1.1c0.1-0.2,0.1-0.4,0.2-0.6c0.1-0.2,0.2-0.4,0.3-0.6c0.1-0.2,0.2-0.4,0.3-0.6c0.1-0.1,0.1-0.2,0.2-0.3
				l0.2-0.3c0.2-0.4,0.5-0.8,0.8-1.2c0.2-0.2,0.3-0.4,0.5-0.6c0.2-0.2,0.3-0.4,0.5-0.5c0.3-0.3,0.7-0.6,1.1-0.9
				c0.7-0.6,1.4-1,2.1-1.3s1.2-0.5,1.6-0.6c0.4-0.1,0.6-0.2,0.6-0.2s-0.9,0.4-2.1,1.1C852.9,1987.9,852.6,1988.1,852.2,1988.3z
				 M856.3,1987.1c-0.1,0.1-0.2,0.3-0.3,0.5c-0.1,0.2-0.2,0.4-0.3,0.7c-0.1,0.3-0.2,0.5-0.3,0.8c-0.1,0.3-0.2,0.6-0.3,0.9
				c-0.1,0.3-0.2,0.7-0.3,1c-0.1,0.4-0.2,0.7-0.3,1.1c-0.1,0.4-0.2,0.7-0.3,1.1c-0.1,0.4-0.2,0.7-0.2,1.1c-0.1,0.4-0.1,0.7-0.2,1
				s-0.1,0.6-0.1,0.9c0,0.3-0.1,0.5-0.1,0.8c0,0.2-0.1,0.4-0.1,0.6c0,0.3-0.1,0.5-0.1,0.5s0-0.2,0-0.5c0-0.2,0-0.4,0-0.6
				s0-0.5,0-0.8c0-0.3,0-0.6,0-0.9c0-0.3,0.1-0.7,0.1-1c0.1-0.4,0.1-0.7,0.2-1.1s0.2-0.7,0.2-1.1c0.1-0.4,0.2-0.7,0.3-1.1
				c0.1-0.4,0.2-0.7,0.4-1c0.1-0.2,0.1-0.3,0.2-0.5c0.1-0.2,0.1-0.3,0.2-0.5c0.1-0.3,0.3-0.6,0.4-0.8c0.3-0.5,0.6-0.9,0.8-1.2
				c0.2-0.3,0.3-0.4,0.3-0.4S856.5,1986.8,856.3,1987.1z M861.6,1997c0,0.2,0,0.4,0,0.6c0,0.3,0,0.5,0,0.5s0-0.2-0.1-0.5
				c0-0.2-0.1-0.4-0.1-0.6c0-0.2-0.1-0.5-0.1-0.8s-0.1-0.6-0.1-0.9c-0.1-0.3-0.1-0.6-0.2-1c-0.1-0.3-0.2-0.7-0.2-1.1
				c-0.1-0.4-0.2-0.7-0.3-1.1s-0.2-0.7-0.3-1.1c-0.1-0.4-0.2-0.7-0.3-1s-0.2-0.6-0.3-0.9c-0.1-0.3-0.2-0.6-0.3-0.8
				c-0.1-0.2-0.2-0.5-0.3-0.7c-0.1-0.2-0.2-0.4-0.3-0.5c-0.2-0.3-0.2-0.5-0.2-0.5s0.1,0.1,0.3,0.4s0.5,0.7,0.8,1.2
				c0.1,0.2,0.3,0.5,0.4,0.8c0.1,0.1,0.1,0.3,0.2,0.5c0.1,0.2,0.1,0.3,0.2,0.5c0.1,0.3,0.2,0.7,0.4,1c0.1,0.4,0.2,0.7,0.3,1.1
				c0.1,0.4,0.2,0.8,0.2,1.1s0.1,0.7,0.2,1.1c0,0.4,0.1,0.7,0.1,1s0,0.6,0,0.9C861.6,1996.5,861.6,1996.8,861.6,1997z M868.5,1996.5
				c-0.1-0.3-0.2-0.6-0.3-0.9c-0.1-0.3-0.2-0.7-0.4-1.1c-0.1-0.2-0.2-0.4-0.2-0.6c-0.1-0.2-0.2-0.4-0.3-0.6
				c-0.1-0.2-0.2-0.4-0.3-0.6c-0.1-0.2-0.2-0.4-0.4-0.6c-0.2-0.4-0.5-0.8-0.8-1.1c-0.1-0.2-0.3-0.4-0.4-0.5
				c-0.2-0.2-0.3-0.4-0.5-0.5c-0.3-0.3-0.7-0.6-1-0.9s-0.7-0.6-1-0.8c-0.3-0.2-0.7-0.4-0.9-0.6c-1.2-0.8-2.1-1.1-2.1-1.1
				s0.2,0,0.6,0.2c0.4,0.1,1,0.3,1.6,0.6c0.7,0.3,1.4,0.8,2.1,1.3c0.4,0.3,0.7,0.6,1.1,0.9c0.2,0.2,0.3,0.4,0.5,0.5
				c0.2,0.2,0.3,0.4,0.5,0.6c0.3,0.4,0.6,0.8,0.8,1.2l0.2,0.3c0.1,0.1,0.1,0.2,0.2,0.3c0.1,0.2,0.2,0.4,0.3,0.6
				c0.1,0.2,0.2,0.4,0.3,0.6c0.1,0.2,0.2,0.4,0.2,0.6c0.1,0.4,0.2,0.8,0.3,1.1c0.1,0.4,0.1,0.7,0.2,1c0,0.3,0.1,0.5,0.1,0.8
				c0,0.4,0,0.7,0,0.7s-0.1-0.2-0.1-0.6C868.7,1997.1,868.6,1996.8,868.5,1996.5z"/>
		</g>
		<rect x="784.1" y="1765.3" class="st10" width="49.7" height="88.3"/>
		<rect x="975.3" y="1765.3" class="st10" width="49.7" height="88.6"/>
		<g>
			<g>
				<polygon class="st9" points="976.6,1877.1 976.6,1910.3 980.2,1910.3 980.2,1877.1 980.2,1866 976.6,1866 				"/>
				<rect x="998.4" y="1866" class="st9" width="2.2" height="44.3"/>
				<rect x="1004" y="1866" class="st9" width="9.1" height="44.3"/>
				<rect x="1027.7" y="1866" class="st9" width="3" height="44.3"/>
				<rect x="1021.5" y="1866" class="st9" width="2" height="44.3"/>
				<rect x="1033.3" y="1866" class="st9" width="4.1" height="44.3"/>
				<rect x="990.5" y="1866" class="st9" width="4.4" height="44.3"/>
				<rect x="982.4" y="1866" class="st9" width="2" height="44.3"/>
				<rect x="985.8" y="1866" class="st9" width="2" height="44.3"/>
				<rect x="1016.7" y="1866" class="st9" width="2" height="44.3"/>
			</g>
		</g>
	</g>
	<g>
		<g>
			<g>
				<polygon class="st6" points="1090.5,2020.3 1335.2,2020.3 1090.5,1838.1 				"/>
				<polygon class="st7" points="1429.3,1742.9 1090.5,1742.9 1090.5,1838.1 1335.2,2020.3 1429.3,2020.3 				"/>
			</g>
			<rect x="1083" y="1732.9" class="st8" width="353.8" height="99.7"/>
			<g>
				<g>
					<g>
						<polygon class="st9" points="1107.6,2013.4 1127.7,2013.4 1129.8,2013.4 1132.7,2013.4 1132.7,2004.8 1127.7,2004.8 
							1127.7,2008.4 1107.6,2008.4 1107.6,2004.8 1102.6,2004.8 1102.6,2013.4 1105.9,2013.4 						"/>
					</g>
					<g>
						<polygon class="st9" points="1112.1,2004.8 1123.2,2004.8 1123.2,1987.7 1128.2,1987.7 1117.7,1976.8 1107.1,1987.7 
							1112.1,1987.7 						"/>
					</g>
				</g>
			</g>
			<path class="st9" d="M1170.9,1987.6v-8.9h-5.2l-1.5,5.2l2.1,0.8l-3.2,8.8l1.9-8.3l-2.4-0.4l1.3-6.1h-10.2v8.9
				c0,5.2,3.1,9.5,7.2,10.3v13.9h-4.2c-0.5,0-0.8,0.4-0.8,0.8s0.4,0.8,0.8,0.8h11c0.5,0,0.8-0.4,0.8-0.8s-0.4-0.8-0.8-0.8h-4.2
				v-13.9C1167.8,1997.1,1170.9,1992.8,1170.9,1987.6z"/>
			<path class="st9" d="M1211,1981C1210.9,1981,1210.9,1981,1211,1981c-0.9-0.2-1.7-0.3-2.5-0.3v0v-0.7c0-0.8-0.7-1.4-1.4-1.4
				s-1.4,0.6-1.4,1.4v0.7v0c-14,1-14.8,15.9-14.8,15.9h9.4h5.4v12.8c0,0,0,0,0,0c0,0.3-0.2,1.2-1.4,1.2c-0.3,0-0.6-0.1-0.8-0.3
				c-0.5-0.5-0.7-1.6-0.7-1.8c0-0.8-0.6-1.5-1.4-1.5c-0.8,0-1.5,0.6-1.5,1.4c0,0.6,0.2,2.6,1.5,3.9c0.8,0.8,1.8,1.2,2.9,1.2
				c3,0,4.1-2.5,4.2-3.8c0-0.1,0-0.2,0-0.3c0,0,0,0,0-0.1v-12.8h14.8C1223.3,1996.5,1222.6,1983.4,1211,1981z M1200.9,1984.3
				c-0.4,0.3-0.7,0.6-1.1,0.9c-0.4,0.3-0.8,0.7-1.1,1c-0.2,0.2-0.4,0.4-0.5,0.6c-0.2,0.2-0.3,0.4-0.5,0.6c-0.3,0.4-0.6,0.8-0.9,1.3
				c-0.1,0.2-0.3,0.4-0.4,0.7c-0.1,0.2-0.2,0.4-0.4,0.7c-0.1,0.2-0.2,0.4-0.3,0.6c-0.1,0.2-0.2,0.4-0.3,0.6
				c-0.2,0.4-0.3,0.8-0.4,1.2c-0.1,0.4-0.2,0.7-0.3,1.1c-0.1,0.3-0.2,0.6-0.2,0.8c-0.1,0.5-0.2,0.7-0.2,0.7s0-0.3,0-0.7
				c0-0.2,0-0.5,0.1-0.9c0-0.3,0.1-0.7,0.2-1.1c0.1-0.4,0.2-0.8,0.3-1.3c0.1-0.2,0.2-0.5,0.2-0.7c0.1-0.2,0.2-0.5,0.3-0.7
				c0.1-0.2,0.2-0.5,0.3-0.7c0.1-0.1,0.1-0.2,0.2-0.4l0.2-0.3c0.3-0.5,0.6-0.9,0.9-1.3c0.2-0.2,0.4-0.4,0.5-0.6
				c0.2-0.2,0.4-0.4,0.6-0.6c0.4-0.4,0.8-0.7,1.2-1c0.8-0.6,1.6-1.1,2.4-1.5c0.7-0.4,1.4-0.6,1.8-0.7c0.4-0.1,0.7-0.2,0.7-0.2
				s-1,0.4-2.4,1.2C1201.7,1983.8,1201.3,1984,1200.9,1984.3z M1205.5,1982.8c-0.1,0.2-0.2,0.4-0.3,0.6s-0.2,0.5-0.3,0.8
				c-0.1,0.3-0.2,0.6-0.4,0.9c-0.1,0.3-0.2,0.7-0.4,1.1c-0.1,0.4-0.2,0.8-0.4,1.2c-0.1,0.4-0.2,0.8-0.3,1.2
				c-0.1,0.4-0.2,0.8-0.3,1.2c-0.1,0.4-0.2,0.8-0.2,1.2c-0.1,0.4-0.1,0.8-0.2,1.1c-0.1,0.4-0.1,0.7-0.2,1c-0.1,0.3-0.1,0.6-0.1,0.9
				c0,0.3-0.1,0.5-0.1,0.7c-0.1,0.4-0.1,0.6-0.1,0.6s0-0.2,0-0.6c0-0.2,0-0.4,0-0.7c0-0.3,0-0.6,0-0.9c0-0.3,0-0.7,0-1
				s0.1-0.8,0.1-1.2c0.1-0.4,0.1-0.8,0.2-1.2c0.1-0.4,0.2-0.8,0.3-1.3c0.1-0.4,0.2-0.8,0.4-1.2c0.1-0.4,0.3-0.8,0.4-1.2
				c0.1-0.2,0.2-0.4,0.2-0.6s0.2-0.4,0.2-0.5c0.2-0.3,0.3-0.6,0.5-0.9c0.3-0.6,0.6-1,0.9-1.3s0.4-0.4,0.4-0.4
				S1205.7,1982.5,1205.5,1982.8z M1211.5,1994c0,0.3,0,0.5,0,0.7c0,0.4,0,0.6,0,0.6s0-0.2-0.1-0.6c0-0.2-0.1-0.4-0.1-0.7
				c0-0.3-0.1-0.5-0.1-0.9c-0.1-0.3-0.1-0.7-0.2-1c-0.1-0.4-0.1-0.7-0.2-1.1c-0.1-0.4-0.2-0.8-0.2-1.2c-0.1-0.4-0.2-0.8-0.3-1.2
				c-0.1-0.4-0.2-0.8-0.3-1.2c-0.1-0.4-0.2-0.8-0.4-1.2c-0.1-0.4-0.2-0.7-0.4-1.1c-0.1-0.3-0.3-0.6-0.4-0.9
				c-0.1-0.3-0.2-0.6-0.3-0.8c-0.1-0.2-0.2-0.4-0.3-0.6c-0.2-0.3-0.3-0.5-0.3-0.5s0.2,0.1,0.4,0.4s0.5,0.7,0.9,1.3
				c0.2,0.3,0.3,0.6,0.5,0.9c0.1,0.2,0.2,0.3,0.2,0.5c0.1,0.2,0.2,0.4,0.2,0.6c0.2,0.4,0.3,0.8,0.4,1.2c0.1,0.4,0.2,0.8,0.4,1.2
				c0.1,0.4,0.2,0.8,0.3,1.3c0.1,0.4,0.1,0.8,0.2,1.2c0.1,0.4,0.1,0.8,0.1,1.2c0,0.4,0,0.7,0,1
				C1211.5,1993.5,1211.5,1993.8,1211.5,1994z M1219.3,1993.5c-0.1-0.3-0.2-0.7-0.3-1.1c-0.1-0.4-0.3-0.8-0.4-1.2
				c-0.1-0.2-0.2-0.4-0.3-0.6s-0.2-0.4-0.3-0.6c-0.1-0.2-0.2-0.4-0.4-0.7c-0.1-0.2-0.3-0.4-0.4-0.7c-0.3-0.4-0.6-0.9-0.9-1.3
				c-0.2-0.2-0.3-0.4-0.5-0.6c-0.2-0.2-0.3-0.4-0.5-0.6c-0.4-0.4-0.7-0.7-1.1-1c-0.4-0.3-0.8-0.6-1.1-0.9c-0.4-0.3-0.7-0.5-1.1-0.7
				c-1.4-0.8-2.4-1.2-2.4-1.2s0.3,0,0.7,0.2c0.4,0.1,1.1,0.4,1.8,0.7c0.7,0.4,1.6,0.9,2.4,1.5c0.4,0.3,0.8,0.6,1.2,1
				c0.2,0.2,0.4,0.4,0.6,0.6c0.2,0.2,0.4,0.4,0.5,0.6c0.3,0.4,0.7,0.9,0.9,1.3l0.2,0.3c0.1,0.1,0.1,0.2,0.2,0.4
				c0.1,0.2,0.2,0.5,0.3,0.7c0.1,0.2,0.2,0.5,0.3,0.7c0.1,0.2,0.2,0.5,0.2,0.7c0.2,0.4,0.2,0.9,0.3,1.3c0.1,0.4,0.2,0.8,0.2,1.1
				c0,0.3,0.1,0.6,0.1,0.9c0,0.5,0,0.7,0,0.7s-0.1-0.3-0.2-0.7C1219.5,1994.1,1219.4,1993.8,1219.3,1993.5z"/>
		</g>
		<rect x="1124.1" y="1732.9" class="st10" width="56.1" height="99.6"/>
		<rect x="1339.6" y="1732.9" class="st10" width="56.1" height="99.9"/>
		<g>
			<g>
				<polygon class="st9" points="1341.1,1858.9 1341.1,1896.4 1345.2,1896.4 1345.2,1858.9 1345.2,1846.4 1341.1,1846.4 				"/>
				<rect x="1365.7" y="1846.4" class="st9" width="2.5" height="49.9"/>
				<rect x="1372" y="1846.4" class="st9" width="10.3" height="49.9"/>
				<rect x="1398.7" y="1846.4" class="st9" width="3.4" height="49.9"/>
				<rect x="1391.7" y="1846.4" class="st9" width="2.2" height="49.9"/>
				<rect x="1405" y="1846.4" class="st9" width="4.6" height="49.9"/>
				<rect x="1356.8" y="1846.4" class="st9" width="4.9" height="49.9"/>
				<rect x="1347.6" y="1846.4" class="st9" width="2.3" height="49.9"/>
				<rect x="1351.5" y="1846.4" class="st9" width="2.3" height="49.9"/>
				<rect x="1386.4" y="1846.4" class="st9" width="2.2" height="49.9"/>
			</g>
		</g>
	</g>
	<g>
		<g>
			<g>
				<polygon class="st6" points="398.9,2020 616,2020 398.9,1858.4 				"/>
				<polygon class="st7" points="699.5,1773.9 398.9,1773.9 398.9,1858.4 616,2020 699.5,2020 				"/>
			</g>
			<rect x="392.2" y="1765.1" class="st8" width="313.9" height="88.4"/>
			<g>
				<g>
					<g>
						<polygon class="st9" points="414.1,2014 431.9,2014 433.7,2014 436.3,2014 436.3,2006.3 431.9,2006.3 431.9,2009.5 
							414.1,2009.5 414.1,2006.3 409.7,2006.3 409.7,2014 412.5,2014 						"/>
					</g>
					<g>
						<polygon class="st9" points="418,2006.3 427.9,2006.3 427.9,1991.2 432.4,1991.2 423,1981.5 413.6,1991.2 418,1991.2 						
							"/>
					</g>
				</g>
			</g>
			<path class="st9" d="M470.2,1991v-7.9h-4.6l-1.3,4.7l1.9,0.7l-2.8,7.8l1.7-7.4l-2.1-0.3l1.2-5.4h-9.1v7.9c0,4.6,2.8,8.4,6.4,9.1
				v12.3h-3.7c-0.4,0-0.7,0.3-0.7,0.7s0.3,0.7,0.7,0.7h9.7c0.4,0,0.7-0.3,0.7-0.7s-0.3-0.7-0.7-0.7h-3.7v-12.3
				C467.4,1999.5,470.2,1995.6,470.2,1991z"/>
			<path class="st9" d="M505.8,1985.2C505.7,1985.2,505.7,1985.2,505.8,1985.2c-0.8-0.2-1.5-0.3-2.2-0.3v0v-0.6
				c0-0.7-0.6-1.3-1.3-1.3c-0.7,0-1.3,0.6-1.3,1.3v0.6v0c-12.5,0.9-13.1,14.1-13.1,14.1h8.3h4.8v11.4c0,0,0,0,0,0c0,0.2-0.2,1-1.2,1
				c-0.3,0-0.5-0.1-0.7-0.3c-0.5-0.5-0.6-1.4-0.6-1.6c0-0.7-0.5-1.3-1.2-1.3c-0.7,0-1.3,0.5-1.3,1.2c0,0.5,0.2,2.3,1.3,3.5
				c0.7,0.7,1.6,1.1,2.6,1.1c2.7,0,3.6-2.2,3.8-3.3c0-0.1,0-0.1,0-0.2c0,0,0,0,0-0.1V1999h13.2
				C516.7,1999,516.1,1987.3,505.8,1985.2z M496.9,1988.1c-0.3,0.2-0.7,0.5-1,0.8c-0.3,0.3-0.7,0.6-1,0.9c-0.2,0.2-0.3,0.3-0.5,0.5
				c-0.2,0.2-0.3,0.4-0.4,0.5c-0.3,0.4-0.6,0.7-0.8,1.1c-0.1,0.2-0.2,0.4-0.3,0.6c-0.1,0.2-0.2,0.4-0.3,0.6
				c-0.1,0.2-0.2,0.4-0.3,0.6c-0.1,0.2-0.2,0.4-0.2,0.6c-0.2,0.4-0.3,0.7-0.4,1.1c-0.1,0.3-0.2,0.6-0.3,0.9
				c-0.1,0.3-0.1,0.5-0.2,0.7c-0.1,0.4-0.1,0.6-0.1,0.6s0-0.2,0-0.7c0-0.2,0-0.5,0.1-0.8c0-0.3,0.1-0.6,0.2-1
				c0.1-0.4,0.2-0.7,0.3-1.1c0.1-0.2,0.1-0.4,0.2-0.6c0.1-0.2,0.2-0.4,0.3-0.6c0.1-0.2,0.2-0.4,0.3-0.6c0.1-0.1,0.1-0.2,0.2-0.3
				l0.2-0.3c0.2-0.4,0.5-0.8,0.8-1.2c0.2-0.2,0.3-0.4,0.5-0.6c0.2-0.2,0.3-0.4,0.5-0.5c0.3-0.3,0.7-0.6,1.1-0.9
				c0.7-0.6,1.4-1,2.1-1.3s1.2-0.5,1.6-0.6c0.4-0.1,0.6-0.2,0.6-0.2s-0.9,0.4-2.1,1.1C497.5,1987.7,497.2,1987.9,496.9,1988.1z
				 M501,1986.8c-0.1,0.1-0.2,0.3-0.3,0.5s-0.2,0.4-0.3,0.7c-0.1,0.3-0.2,0.5-0.3,0.8c-0.1,0.3-0.2,0.6-0.3,0.9
				c-0.1,0.3-0.2,0.7-0.3,1c-0.1,0.4-0.2,0.7-0.3,1.1c-0.1,0.4-0.2,0.7-0.3,1.1c-0.1,0.4-0.2,0.7-0.2,1.1c-0.1,0.4-0.1,0.7-0.2,1
				s-0.1,0.6-0.1,0.9c0,0.3-0.1,0.5-0.1,0.8c0,0.2-0.1,0.4-0.1,0.6c0,0.3-0.1,0.5-0.1,0.5s0-0.2,0-0.5c0-0.2,0-0.4,0-0.6
				s0-0.5,0-0.8s0-0.6,0-0.9c0-0.3,0.1-0.7,0.1-1c0.1-0.4,0.1-0.7,0.2-1.1c0.1-0.4,0.2-0.7,0.2-1.1c0.1-0.4,0.2-0.7,0.3-1.1
				c0.1-0.4,0.2-0.7,0.4-1c0.1-0.2,0.1-0.3,0.2-0.5s0.2-0.3,0.2-0.5c0.1-0.3,0.3-0.6,0.4-0.8C500.4,1987.4,500.7,1987,501,1986.8
				c0.1-0.3,0.2-0.5,0.2-0.5S501.1,1986.5,501,1986.8z M506.3,1996.8c0,0.2,0,0.4,0,0.6c0,0.3,0,0.5,0,0.5s0-0.2-0.1-0.5
				c0-0.2-0.1-0.4-0.1-0.6c0-0.2-0.1-0.5-0.1-0.8c0-0.3-0.1-0.6-0.1-0.9c-0.1-0.3-0.1-0.6-0.2-1c-0.1-0.3-0.2-0.7-0.2-1.1
				c-0.1-0.4-0.2-0.7-0.2-1.1c-0.1-0.4-0.2-0.7-0.3-1.1c-0.1-0.4-0.2-0.7-0.3-1c-0.1-0.3-0.2-0.6-0.3-0.9c-0.1-0.3-0.2-0.6-0.3-0.8
				c-0.1-0.2-0.2-0.5-0.3-0.7c-0.1-0.2-0.2-0.4-0.3-0.5c-0.2-0.3-0.2-0.5-0.2-0.5s0.1,0.1,0.3,0.4c0.2,0.3,0.5,0.7,0.8,1.2
				c0.1,0.2,0.3,0.5,0.4,0.8c0.1,0.1,0.1,0.3,0.2,0.5c0.1,0.2,0.1,0.3,0.2,0.5c0.1,0.3,0.3,0.7,0.4,1c0.1,0.4,0.2,0.7,0.3,1.1
				c0.1,0.4,0.2,0.8,0.2,1.1s0.1,0.7,0.2,1.1c0,0.4,0.1,0.7,0.1,1s0,0.6,0,0.9C506.3,1996.3,506.3,1996.5,506.3,1996.8z
				 M513.2,1996.3c-0.1-0.3-0.2-0.6-0.3-0.9c-0.1-0.3-0.2-0.7-0.4-1.1c-0.1-0.2-0.2-0.4-0.2-0.6c-0.1-0.2-0.2-0.4-0.3-0.6
				c-0.1-0.2-0.2-0.4-0.3-0.6c-0.1-0.2-0.2-0.4-0.4-0.6c-0.2-0.4-0.5-0.8-0.8-1.1c-0.1-0.2-0.3-0.4-0.4-0.5
				c-0.2-0.2-0.3-0.4-0.5-0.5c-0.3-0.3-0.7-0.6-1-0.9s-0.7-0.6-1-0.8c-0.3-0.2-0.7-0.4-0.9-0.6c-1.2-0.8-2.1-1.1-2.1-1.1
				s0.2,0,0.6,0.2c0.4,0.1,1,0.3,1.6,0.6c0.7,0.3,1.4,0.8,2.1,1.3c0.4,0.3,0.7,0.6,1.1,0.9c0.2,0.2,0.3,0.4,0.5,0.5
				c0.2,0.2,0.3,0.4,0.5,0.6c0.3,0.4,0.6,0.8,0.8,1.2l0.2,0.3c0.1,0.1,0.1,0.2,0.2,0.3c0.1,0.2,0.2,0.4,0.3,0.6
				c0.1,0.2,0.2,0.4,0.3,0.6c0.1,0.2,0.2,0.4,0.2,0.6c0.1,0.4,0.2,0.8,0.3,1.1c0.1,0.4,0.1,0.7,0.2,1c0,0.3,0.1,0.5,0.1,0.8
				c0,0.4,0,0.7,0,0.7s-0.1-0.2-0.1-0.6C513.3,1996.8,513.2,1996.6,513.2,1996.3z"/>
		</g>
		<rect x="428.7" y="1765.1" class="st10" width="49.7" height="88.3"/>
		<rect x="619.9" y="1765.1" class="st10" width="49.7" height="88.6"/>
		<g>
			<g>
				<polygon class="st9" points="621.3,1876.8 621.3,1910.1 624.8,1910.1 624.8,1876.8 624.8,1865.8 621.3,1865.8 				"/>
				<rect x="643" y="1865.8" class="st9" width="2.2" height="44.3"/>
				<rect x="648.6" y="1865.8" class="st9" width="9.1" height="44.3"/>
				<rect x="672.3" y="1865.8" class="st9" width="3" height="44.3"/>
				<rect x="666.1" y="1865.8" class="st9" width="1.9" height="44.3"/>
				<rect x="677.9" y="1865.8" class="st9" width="4.1" height="44.3"/>
				<rect x="635.1" y="1865.8" class="st9" width="4.4" height="44.3"/>
				<rect x="627" y="1865.8" class="st9" width="2" height="44.3"/>
				<rect x="630.5" y="1865.8" class="st9" width="2" height="44.3"/>
				<rect x="661.4" y="1865.8" class="st9" width="2" height="44.3"/>
			</g>
		</g>
	</g>
	<g>
		<g>
			<g>
				<polygon class="st6" points="1198.9,1298.8 1360,1298.8 1198.9,1178.8 				"/>
				<polygon class="st7" points="1422,1116.1 1198.9,1116.1 1198.9,1178.8 1360,1298.8 1422,1298.8 				"/>
			</g>
			<rect x="1194" y="1109.6" class="st8" width="232.9" height="65.6"/>
			<g>
				<g>
					<g>
						<polygon class="st9" points="1210.2,1294.3 1223.4,1294.3 1224.8,1294.3 1226.7,1294.3 1226.7,1288.6 1223.4,1288.6 
							1223.4,1291 1210.2,1291 1210.2,1288.6 1206.9,1288.6 1206.9,1294.3 1209,1294.3 						"/>
					</g>
					<g>
						<polygon class="st9" points="1213.1,1288.6 1220.5,1288.6 1220.5,1277.4 1223.8,1277.4 1216.8,1270.1 1209.8,1277.4 
							1213.1,1277.4 						"/>
					</g>
				</g>
			</g>
			<path class="st9" d="M1251.8,1277.2v-5.9h-3.4l-1,3.5l1.4,0.5l-2.1,5.8l1.2-5.4l-1.6-0.2l0.9-4h-6.7v5.9c0,3.4,2.1,6.3,4.8,6.8
				v9.1h-2.7c-0.3,0-0.6,0.2-0.6,0.6s0.2,0.6,0.6,0.6h7.2c0.3,0,0.6-0.2,0.6-0.6s-0.2-0.6-0.6-0.6h-2.7v-9.1
				C1249.8,1283.5,1251.8,1280.7,1251.8,1277.2z"/>
			<path class="st9" d="M1278.2,1272.9C1278.2,1272.9,1278.2,1272.9,1278.2,1272.9c-0.6-0.1-1.1-0.2-1.7-0.2v0v-0.5
				c0-0.5-0.4-0.9-0.9-0.9c-0.5,0-0.9,0.4-0.9,0.9v0.5v0c-9.2,0.6-9.7,10.5-9.7,10.5h6.2h3.6v8.4c0,0,0,0,0,0c0,0.2-0.2,0.8-0.9,0.8
				c-0.2,0-0.4-0.1-0.5-0.2c-0.3-0.4-0.5-1-0.5-1.2c0-0.5-0.4-1-0.9-1c-0.5,0-1,0.4-1,0.9c0,0.4,0.1,1.7,1,2.6
				c0.5,0.5,1.2,0.8,1.9,0.8c2,0,2.7-1.6,2.8-2.5c0-0.1,0-0.1,0-0.2c0,0,0,0,0,0v-8.4h9.8
				C1286.3,1283.2,1285.9,1274.5,1278.2,1272.9z M1271.6,1275.1c-0.2,0.2-0.5,0.4-0.7,0.6s-0.5,0.4-0.7,0.7
				c-0.1,0.1-0.2,0.2-0.4,0.4c-0.1,0.1-0.2,0.3-0.3,0.4c-0.2,0.3-0.4,0.6-0.6,0.8c-0.1,0.1-0.2,0.3-0.3,0.4
				c-0.1,0.1-0.2,0.3-0.2,0.4c-0.1,0.1-0.1,0.3-0.2,0.4s-0.1,0.3-0.2,0.4c-0.1,0.3-0.2,0.6-0.3,0.8c-0.1,0.2-0.2,0.5-0.2,0.7
				c-0.1,0.2-0.1,0.4-0.1,0.5c-0.1,0.3-0.1,0.5-0.1,0.5s0-0.2,0-0.5c0-0.2,0-0.3,0.1-0.6s0.1-0.5,0.1-0.7c0.1-0.3,0.1-0.6,0.2-0.8
				c0-0.1,0.1-0.3,0.2-0.4c0.1-0.1,0.1-0.3,0.2-0.5s0.1-0.3,0.2-0.5c0-0.1,0.1-0.1,0.1-0.2l0.1-0.2c0.2-0.3,0.4-0.6,0.6-0.9
				c0.1-0.1,0.2-0.3,0.3-0.4c0.1-0.1,0.2-0.3,0.4-0.4c0.2-0.2,0.5-0.5,0.8-0.7c0.5-0.4,1.1-0.7,1.6-1c0.5-0.2,0.9-0.4,1.2-0.5
				c0.3-0.1,0.5-0.1,0.5-0.1s-0.7,0.3-1.6,0.8C1272.1,1274.8,1271.9,1274.9,1271.6,1275.1z M1274.7,1274.1c-0.1,0.1-0.1,0.2-0.2,0.4
				c-0.1,0.1-0.2,0.3-0.2,0.5c-0.1,0.2-0.2,0.4-0.2,0.6c-0.1,0.2-0.2,0.5-0.2,0.7c-0.1,0.2-0.2,0.5-0.2,0.8
				c-0.1,0.3-0.2,0.5-0.2,0.8c-0.1,0.3-0.1,0.5-0.2,0.8c-0.1,0.3-0.1,0.5-0.2,0.8c0,0.3-0.1,0.5-0.1,0.7c0,0.2-0.1,0.5-0.1,0.7
				s-0.1,0.4-0.1,0.6c0,0.2,0,0.3-0.1,0.4c0,0.2-0.1,0.4-0.1,0.4s0-0.1,0-0.4c0-0.1,0-0.3,0-0.4s0-0.4,0-0.6s0-0.4,0-0.7
				s0-0.5,0.1-0.8c0-0.3,0.1-0.5,0.1-0.8s0.1-0.6,0.2-0.8c0.1-0.3,0.2-0.6,0.2-0.8s0.2-0.5,0.3-0.8c0.1-0.1,0.1-0.2,0.2-0.4
				s0.1-0.2,0.2-0.3c0.1-0.2,0.2-0.4,0.3-0.6C1274.2,1274.6,1274.4,1274.3,1274.7,1274.1c0.1-0.2,0.2-0.3,0.2-0.3
				S1274.8,1273.9,1274.7,1274.1z M1278.6,1281.5c0,0.2,0,0.3,0,0.4c0,0.2,0,0.4,0,0.4s0-0.1-0.1-0.4c0-0.1,0-0.3-0.1-0.4
				c0-0.2-0.1-0.4-0.1-0.6c0-0.2-0.1-0.4-0.1-0.7c0-0.2-0.1-0.5-0.1-0.7c-0.1-0.3-0.1-0.5-0.2-0.8c-0.1-0.3-0.1-0.5-0.2-0.8
				c-0.1-0.3-0.1-0.5-0.2-0.8c-0.1-0.2-0.2-0.5-0.2-0.8c-0.1-0.2-0.2-0.5-0.2-0.7c-0.1-0.2-0.2-0.4-0.2-0.6
				c-0.1-0.2-0.2-0.4-0.2-0.5c-0.1-0.1-0.1-0.3-0.2-0.4c-0.1-0.2-0.2-0.3-0.2-0.3s0.1,0.1,0.2,0.3s0.3,0.5,0.6,0.9
				c0.1,0.2,0.2,0.4,0.3,0.6c0.1,0.1,0.1,0.2,0.2,0.3c0.1,0.1,0.1,0.2,0.2,0.4c0.1,0.2,0.2,0.5,0.3,0.8c0.1,0.3,0.2,0.5,0.2,0.8
				c0.1,0.3,0.1,0.6,0.2,0.8s0.1,0.6,0.1,0.8c0,0.3,0.1,0.5,0.1,0.8c0,0.2,0,0.5,0,0.7C1278.6,1281.1,1278.6,1281.3,1278.6,1281.5z
				 M1283.7,1281.2c-0.1-0.2-0.1-0.4-0.2-0.7c-0.1-0.2-0.2-0.5-0.3-0.8c-0.1-0.1-0.1-0.3-0.2-0.4c-0.1-0.1-0.1-0.3-0.2-0.4
				c-0.1-0.1-0.2-0.3-0.2-0.4c-0.1-0.1-0.2-0.3-0.3-0.4c-0.2-0.3-0.4-0.6-0.6-0.8c-0.1-0.1-0.2-0.3-0.3-0.4
				c-0.1-0.1-0.2-0.2-0.3-0.4c-0.2-0.2-0.5-0.5-0.7-0.7s-0.5-0.4-0.7-0.6c-0.2-0.2-0.5-0.3-0.7-0.5c-0.9-0.6-1.6-0.8-1.6-0.8
				s0.2,0,0.5,0.1c0.3,0.1,0.7,0.2,1.2,0.5c0.5,0.2,1,0.6,1.6,1c0.3,0.2,0.5,0.4,0.8,0.7c0.1,0.1,0.2,0.3,0.4,0.4
				c0.1,0.1,0.2,0.3,0.3,0.4c0.2,0.3,0.4,0.6,0.6,0.9l0.1,0.2c0,0.1,0.1,0.2,0.1,0.2c0.1,0.1,0.2,0.3,0.2,0.5s0.1,0.3,0.2,0.5
				c0.1,0.1,0.1,0.3,0.2,0.4c0.1,0.3,0.2,0.6,0.2,0.8c0.1,0.3,0.1,0.5,0.1,0.7c0,0.2,0.1,0.4,0.1,0.6c0,0.3,0,0.5,0,0.5
				s0-0.2-0.1-0.5C1283.8,1281.6,1283.8,1281.4,1283.7,1281.2z"/>
		</g>
		<rect x="1221" y="1109.6" class="st10" width="36.9" height="65.6"/>
		<rect x="1362.9" y="1109.6" class="st10" width="36.9" height="65.8"/>
		<g>
			<g>
				<polygon class="st9" points="1364,1192.5 1364,1217.2 1366.6,1217.2 1366.6,1192.5 1366.6,1184.3 1364,1184.3 				"/>
				<rect x="1380.1" y="1184.3" class="st9" width="1.6" height="32.9"/>
				<rect x="1384.3" y="1184.3" class="st9" width="6.8" height="32.9"/>
				<rect x="1401.9" y="1184.3" class="st9" width="2.2" height="32.9"/>
				<rect x="1397.2" y="1184.3" class="st9" width="1.4" height="32.9"/>
				<rect x="1406" y="1184.3" class="st9" width="3" height="32.9"/>
				<rect x="1374.2" y="1184.3" class="st9" width="3.3" height="32.9"/>
				<rect x="1368.2" y="1184.3" class="st9" width="1.5" height="32.9"/>
				<rect x="1370.8" y="1184.3" class="st9" width="1.5" height="32.9"/>
				<rect x="1393.7" y="1184.3" class="st9" width="1.4" height="32.9"/>
			</g>
		</g>
	</g>
	<g>
		<g>
			<g>
				<polygon class="st6" points="1961.3,2302.4 2466.1,2302.4 1961.3,1926.7 				"/>
				<polygon class="st7" points="2660.3,1730.1 1961.3,1730.1 1961.3,1926.7 2466.1,2302.4 2660.3,2302.4 				"/>
			</g>
			<rect x="1945.8" y="1709.6" class="st8" width="729.9" height="205.6"/>
			<g>
				<g>
					<g>
						<polygon class="st9" points="1996.7,2288.3 2038,2288.3 2042.4,2288.3 2048.3,2288.3 2048.3,2270.6 2038,2270.6 2038,2278 
							1996.7,2278 1996.7,2270.6 1986.4,2270.6 1986.4,2288.3 1993,2288.3 						"/>
					</g>
					<g>
						<polygon class="st9" points="2005.8,2270.6 2028.9,2270.6 2028.9,2235.3 2039.2,2235.3 2017.4,2212.7 1995.5,2235.3 
							2005.8,2235.3 						"/>
					</g>
				</g>
			</g>
			<path class="st9" d="M2127.2,2235v-18.4h-10.7l-3,10.8l4.4,1.6l-6.5,18.1l3.8-17.1l-4.9-0.8l2.8-12.7h-21v18.4
				c0,10.7,6.4,19.6,14.9,21.2v28.7h-8.6c-0.9,0-1.7,0.8-1.7,1.7s0.8,1.7,1.7,1.7h22.6c0.9,0,1.7-0.8,1.7-1.7s-0.8-1.7-1.7-1.7h-8.6
				v-28.7C2120.7,2254.6,2127.2,2245.7,2127.2,2235z"/>
			<path class="st9" d="M2209.9,2221.4c-0.1,0-0.1,0-0.2,0c-1.6-0.3-3.2-0.6-5-0.7v-0.1v-1.5c0-1.6-1.3-3-3-3c-1.6,0-3,1.3-3,3v1.4
				v0.1c-29,2-30.5,32.8-30.5,32.8h19.4h11.1v26.4c0,0,0,0.1,0,0.1c-0.1,0.5-0.5,2.4-2.8,2.4c-0.7,0-1.2-0.2-1.7-0.7
				c-1.1-1.1-1.4-3.2-1.4-3.7c0.1-1.6-1.2-3.1-2.8-3.1c-1.6-0.1-3,1.2-3.1,2.8c-0.1,1.2,0.4,5.3,3.1,8.1c1.6,1.7,3.7,2.6,6,2.6
				c6.3,0,8.5-5.1,8.8-7.8c0-0.2,0-0.4,0-0.5c0-0.1,0-0.1,0-0.1v-26.4h30.6C2235.3,2253.5,2233.9,2226.4,2209.9,2221.4z
				 M2189.2,2228.2c-0.8,0.5-1.5,1.2-2.3,1.8c-0.8,0.7-1.5,1.4-2.3,2.1c-0.4,0.4-0.7,0.8-1.1,1.2c-0.3,0.4-0.7,0.8-1,1.2
				c-0.7,0.9-1.3,1.7-1.9,2.6c-0.3,0.4-0.6,0.9-0.8,1.4c-0.3,0.4-0.5,0.9-0.7,1.4c-0.2,0.4-0.4,0.9-0.6,1.4
				c-0.2,0.4-0.4,0.9-0.6,1.3c-0.4,0.9-0.6,1.7-0.9,2.5c-0.2,0.8-0.5,1.5-0.6,2.2c-0.1,0.7-0.3,1.2-0.4,1.7c-0.2,1-0.3,1.5-0.3,1.5
				s0-0.6,0.1-1.5c0-0.5,0.1-1.1,0.2-1.8c0.1-0.7,0.2-1.4,0.4-2.3c0.2-0.8,0.4-1.7,0.7-2.6c0.1-0.5,0.3-0.9,0.5-1.4
				c0.2-0.5,0.4-1,0.6-1.4c0.2-0.5,0.4-1,0.7-1.5c0.1-0.2,0.3-0.5,0.4-0.7l0.4-0.7c0.6-1,1.2-1.9,1.9-2.8c0.4-0.4,0.7-0.9,1.1-1.3
				c0.4-0.4,0.8-0.8,1.2-1.2c0.8-0.8,1.6-1.5,2.5-2.1c1.7-1.3,3.4-2.3,4.9-3.1c1.5-0.7,2.8-1.2,3.8-1.5c0.9-0.3,1.5-0.4,1.5-0.4
				s-2.1,0.8-4.9,2.6C2190.7,2227.2,2189.9,2227.7,2189.2,2228.2z M2198.7,2225.3c-0.2,0.4-0.4,0.8-0.6,1.2
				c-0.2,0.5-0.4,1.1-0.7,1.6c-0.2,0.6-0.5,1.3-0.8,2c-0.3,0.7-0.5,1.4-0.8,2.2c-0.3,0.8-0.5,1.6-0.8,2.4c-0.2,0.8-0.5,1.7-0.7,2.5
				c-0.2,0.9-0.4,1.7-0.6,2.5c-0.1,0.9-0.4,1.7-0.5,2.5c-0.1,0.8-0.3,1.6-0.4,2.3c-0.1,0.7-0.2,1.4-0.3,2.1
				c-0.1,0.6-0.2,1.2-0.2,1.8c-0.1,0.5-0.1,1-0.2,1.4c-0.1,0.8-0.2,1.2-0.2,1.2s0-0.4-0.1-1.2c0-0.4,0-0.9-0.1-1.4
				c0-0.5,0-1.1,0-1.8c0-0.7,0-1.4,0.1-2.1c0.1-0.8,0.1-1.6,0.2-2.4c0.1-0.8,0.2-1.7,0.4-2.5c0.2-0.9,0.4-1.7,0.6-2.6
				c0.2-0.9,0.5-1.7,0.7-2.6c0.3-0.8,0.6-1.6,0.9-2.4c0.2-0.4,0.3-0.8,0.5-1.1c0.2-0.4,0.3-0.7,0.5-1.1c0.3-0.7,0.7-1.3,1-1.9
				c0.7-1.2,1.3-2.1,1.8-2.7c0.5-0.6,0.8-0.9,0.8-0.9S2199,2224.6,2198.7,2225.3z M2211,2248.4c0,0.5-0.1,1-0.1,1.4
				c0,0.8-0.1,1.2-0.1,1.2s-0.1-0.4-0.2-1.2c0-0.4-0.1-0.9-0.2-1.4c-0.1-0.5-0.2-1.1-0.2-1.8s-0.2-1.4-0.3-2.1
				c-0.1-0.7-0.3-1.5-0.4-2.3c-0.1-0.8-0.3-1.6-0.5-2.5c-0.2-0.8-0.4-1.7-0.6-2.5c-0.2-0.8-0.4-1.7-0.7-2.5
				c-0.3-0.8-0.5-1.6-0.8-2.4c-0.3-0.8-0.5-1.5-0.8-2.2c-0.2-0.7-0.5-1.4-0.8-2c-0.3-0.6-0.5-1.1-0.7-1.6c-0.2-0.5-0.4-0.9-0.6-1.2
				c-0.4-0.7-0.6-1.1-0.6-1.1s0.3,0.3,0.8,0.9c0.5,0.6,1.1,1.5,1.8,2.7c0.3,0.6,0.7,1.2,1,1.9c0.2,0.3,0.3,0.7,0.5,1.1
				c0.1,0.4,0.3,0.8,0.5,1.1c0.3,0.8,0.6,1.6,0.9,2.4c0.2,0.8,0.5,1.7,0.7,2.6c0.2,0.9,0.4,1.7,0.6,2.6c0.1,0.9,0.3,1.7,0.4,2.5
				c0.1,0.8,0.2,1.6,0.2,2.4s0.1,1.5,0.1,2.1C2211,2247.2,2211,2247.8,2211,2248.4z M2227.1,2247.3c-0.1-0.6-0.4-1.4-0.6-2.2
				c-0.3-0.8-0.6-1.6-0.9-2.5c-0.2-0.4-0.4-0.9-0.6-1.3c-0.2-0.4-0.4-0.9-0.6-1.4c-0.2-0.5-0.5-0.9-0.7-1.4
				c-0.3-0.5-0.5-0.9-0.8-1.4c-0.6-0.9-1.2-1.8-1.9-2.6c-0.3-0.4-0.7-0.8-1-1.2c-0.4-0.4-0.7-0.8-1.1-1.2c-0.8-0.8-1.5-1.5-2.3-2.1
				c-0.8-0.6-1.6-1.3-2.3-1.8c-0.8-0.6-1.5-1-2.2-1.5c-2.8-1.7-4.9-2.6-4.9-2.6s0.6,0.1,1.5,0.4c0.9,0.3,2.2,0.8,3.8,1.5
				c1.5,0.7,3.2,1.8,4.9,3.1c0.8,0.6,1.7,1.4,2.5,2.1c0.4,0.4,0.8,0.8,1.2,1.2c0.4,0.4,0.8,0.9,1.1,1.3c0.7,0.9,1.4,1.8,1.9,2.8
				l0.4,0.7c0.1,0.2,0.3,0.5,0.4,0.7c0.3,0.5,0.5,1,0.7,1.5c0.2,0.5,0.4,0.9,0.6,1.4c0.2,0.5,0.4,0.9,0.5,1.4
				c0.3,0.9,0.5,1.8,0.7,2.6c0.1,0.8,0.3,1.6,0.4,2.3c0.1,0.7,0.2,1.3,0.2,1.8c0,1,0.1,1.5,0.1,1.5s-0.1-0.5-0.3-1.5
				C2227.4,2248.5,2227.3,2247.9,2227.1,2247.3z"/>
		</g>
		<g>
			<g>
				<polygon class="st9" points="2478.5,1969.4 2478.5,2046.9 2486.7,2046.9 2486.7,1969.4 2486.7,1943.8 2478.5,1943.8 				"/>
				<rect x="2529" y="1943.8" class="st9" width="5.1" height="103"/>
				<rect x="2542.1" y="1943.8" class="st9" width="21.2" height="103"/>
				<rect x="2597.2" y="1943.8" class="st9" width="7" height="103"/>
				<rect x="2582.8" y="1943.8" class="st9" width="4.6" height="103"/>
				<rect x="2610.2" y="1943.8" class="st9" width="9.5" height="103"/>
				<rect x="2510.7" y="1943.8" class="st9" width="10.2" height="103"/>
				<rect x="2491.8" y="1943.8" class="st9" width="4.7" height="103"/>
				<rect x="2499.9" y="1943.8" class="st9" width="4.7" height="103"/>
				<rect x="2571.7" y="1943.8" class="st9" width="4.6" height="103"/>
			</g>
		</g>
	</g>
	<g>
		<g>
			<g>
				<polygon class="st6" points="2832.7,2302.4 3337.5,2302.4 2832.7,1926.7 				"/>
				<polygon class="st7" points="3531.8,1730.1 2832.7,1730.1 2832.7,1926.7 3337.5,2302.4 3531.8,2302.4 				"/>
			</g>
			<rect x="2817.3" y="1709.6" class="st8" width="729.9" height="205.6"/>
			<g>
				<g>
					<g>
						<polygon class="st9" points="2868.1,2288.3 2909.5,2288.3 2913.8,2288.3 2919.8,2288.3 2919.8,2270.6 2909.5,2270.6 
							2909.5,2278 2868.1,2278 2868.1,2270.6 2857.8,2270.6 2857.8,2288.3 2864.5,2288.3 						"/>
					</g>
					<g>
						<polygon class="st9" points="2877.3,2270.6 2900.3,2270.6 2900.3,2235.3 2910.6,2235.3 2888.8,2212.7 2867,2235.3 
							2877.3,2235.3 						"/>
					</g>
				</g>
			</g>
			<path class="st9" d="M2998.6,2235v-18.4h-10.7l-3,10.8l4.4,1.6l-6.5,18.1l3.8-17.1l-4.9-0.8l2.8-12.7h-21v18.4
				c0,10.7,6.5,19.6,14.9,21.2v28.7h-8.6c-0.9,0-1.7,0.8-1.7,1.7s0.8,1.7,1.7,1.7h22.6c0.9,0,1.7-0.8,1.7-1.7s-0.8-1.7-1.7-1.7h-8.6
				v-28.7C2992.2,2254.6,2998.6,2245.7,2998.6,2235z"/>
			<path class="st9" d="M3081.3,2221.4c-0.1,0-0.1,0-0.2,0c-1.6-0.3-3.2-0.6-5-0.7v-0.1v-1.5c0-1.6-1.3-3-3-3c-1.6,0-3,1.3-3,3v1.4
				v0.1c-29,2-30.5,32.8-30.5,32.8h19.4h11.1v26.4c0,0,0,0.1,0,0.1c-0.1,0.5-0.5,2.4-2.8,2.4c-0.7,0-1.2-0.2-1.7-0.7
				c-1.1-1.1-1.4-3.2-1.4-3.7c0.1-1.6-1.2-3.1-2.8-3.1c-1.6-0.1-3,1.2-3.1,2.8c-0.1,1.2,0.4,5.3,3.1,8.1c1.6,1.7,3.7,2.6,6,2.6
				c6.3,0,8.5-5.1,8.8-7.8c0-0.2,0-0.4,0-0.5c0-0.1,0-0.1,0-0.1v-26.4h30.6C3106.7,2253.5,3105.3,2226.4,3081.3,2221.4z
				 M3060.6,2228.2c-0.8,0.5-1.5,1.2-2.3,1.8c-0.8,0.7-1.5,1.4-2.3,2.1c-0.4,0.4-0.7,0.8-1.1,1.2c-0.3,0.4-0.7,0.8-1,1.2
				c-0.7,0.9-1.3,1.7-1.9,2.6c-0.3,0.4-0.6,0.9-0.8,1.4c-0.3,0.4-0.5,0.9-0.7,1.4c-0.2,0.4-0.4,0.9-0.6,1.4
				c-0.2,0.4-0.4,0.9-0.6,1.3c-0.4,0.9-0.6,1.7-0.9,2.5c-0.2,0.8-0.5,1.5-0.6,2.2c-0.1,0.7-0.3,1.2-0.4,1.7c-0.2,1-0.3,1.5-0.3,1.5
				s0-0.6,0.1-1.5c0-0.5,0.1-1.1,0.2-1.8c0.1-0.7,0.2-1.4,0.4-2.3c0.2-0.8,0.4-1.7,0.7-2.6c0.1-0.5,0.3-0.9,0.5-1.4
				c0.2-0.5,0.4-1,0.6-1.4c0.2-0.5,0.4-1,0.7-1.5c0.1-0.2,0.3-0.5,0.4-0.7l0.4-0.7c0.6-1,1.2-1.9,1.9-2.8c0.4-0.4,0.7-0.9,1.1-1.3
				c0.4-0.4,0.8-0.8,1.2-1.2c0.8-0.8,1.6-1.5,2.5-2.1c1.7-1.3,3.4-2.3,4.9-3.1c1.5-0.7,2.8-1.2,3.8-1.5c0.9-0.3,1.5-0.4,1.5-0.4
				s-2.1,0.8-4.9,2.6C3062.1,2227.2,3061.4,2227.7,3060.6,2228.2z M3070.1,2225.3c-0.2,0.4-0.4,0.8-0.6,1.2
				c-0.2,0.5-0.4,1.1-0.7,1.6c-0.2,0.6-0.5,1.3-0.8,2c-0.3,0.7-0.5,1.4-0.8,2.2c-0.3,0.8-0.5,1.6-0.8,2.4c-0.2,0.8-0.5,1.7-0.7,2.5
				c-0.2,0.9-0.4,1.7-0.6,2.5c-0.1,0.9-0.4,1.7-0.5,2.5c-0.1,0.8-0.3,1.6-0.4,2.3c-0.1,0.7-0.2,1.4-0.3,2.1
				c-0.1,0.6-0.2,1.2-0.2,1.8c-0.1,0.5-0.1,1-0.2,1.4c-0.1,0.8-0.2,1.2-0.2,1.2s0-0.4-0.1-1.2c0-0.4,0-0.9-0.1-1.4
				c0-0.5,0-1.1,0-1.8c0-0.7,0-1.4,0.1-2.1c0.1-0.8,0.1-1.6,0.2-2.4c0.1-0.8,0.2-1.7,0.4-2.5c0.2-0.9,0.4-1.7,0.6-2.6
				c0.2-0.9,0.5-1.7,0.7-2.6c0.3-0.8,0.6-1.6,0.9-2.4c0.2-0.4,0.3-0.8,0.5-1.1c0.2-0.4,0.3-0.7,0.5-1.1c0.3-0.7,0.7-1.3,1-1.9
				c0.7-1.2,1.3-2.1,1.8-2.7c0.5-0.6,0.8-0.9,0.8-0.9S3070.5,2224.6,3070.1,2225.3z M3082.4,2248.4c0,0.5-0.1,1-0.1,1.4
				c0,0.8-0.1,1.2-0.1,1.2s-0.1-0.4-0.2-1.2c0-0.4-0.1-0.9-0.2-1.4c-0.1-0.5-0.2-1.1-0.2-1.8c-0.1-0.6-0.2-1.4-0.3-2.1
				c-0.1-0.7-0.3-1.5-0.4-2.3c-0.1-0.8-0.3-1.6-0.5-2.5c-0.2-0.8-0.4-1.7-0.6-2.5c-0.2-0.8-0.4-1.7-0.7-2.5
				c-0.3-0.8-0.5-1.6-0.8-2.4c-0.3-0.8-0.5-1.5-0.8-2.2c-0.2-0.7-0.5-1.4-0.8-2c-0.3-0.6-0.5-1.1-0.7-1.6c-0.2-0.5-0.4-0.9-0.6-1.2
				c-0.4-0.7-0.6-1.1-0.6-1.1s0.3,0.3,0.8,0.9c0.5,0.6,1.1,1.5,1.8,2.7c0.3,0.6,0.7,1.2,1,1.9c0.2,0.3,0.3,0.7,0.5,1.1
				c0.1,0.4,0.3,0.8,0.5,1.1c0.3,0.8,0.6,1.6,0.9,2.4c0.2,0.8,0.5,1.7,0.7,2.6c0.2,0.9,0.4,1.7,0.6,2.6c0.1,0.9,0.3,1.7,0.4,2.5
				c0.1,0.8,0.2,1.6,0.2,2.4s0.1,1.5,0.1,2.1C3082.5,2247.2,3082.5,2247.8,3082.4,2248.4z M3098.6,2247.3c-0.1-0.6-0.4-1.4-0.6-2.2
				c-0.3-0.8-0.6-1.6-0.9-2.5c-0.2-0.4-0.4-0.9-0.6-1.3c-0.2-0.4-0.4-0.9-0.6-1.4c-0.2-0.5-0.5-0.9-0.7-1.4
				c-0.3-0.5-0.5-0.9-0.8-1.4c-0.6-0.9-1.2-1.8-1.9-2.6c-0.3-0.4-0.7-0.8-1-1.2c-0.4-0.4-0.7-0.8-1.1-1.2c-0.8-0.8-1.5-1.5-2.3-2.1
				c-0.8-0.6-1.6-1.3-2.3-1.8c-0.8-0.6-1.5-1-2.2-1.5c-2.8-1.7-4.9-2.6-4.9-2.6s0.6,0.1,1.5,0.4c0.9,0.3,2.2,0.8,3.8,1.5
				s3.2,1.8,4.9,3.1c0.8,0.6,1.7,1.4,2.5,2.1c0.4,0.4,0.8,0.8,1.2,1.2c0.4,0.4,0.8,0.9,1.1,1.3c0.7,0.9,1.4,1.8,1.9,2.8l0.4,0.7
				c0.1,0.2,0.3,0.5,0.4,0.7c0.3,0.5,0.5,1,0.7,1.5c0.2,0.5,0.4,0.9,0.6,1.4c0.2,0.5,0.4,0.9,0.5,1.4c0.3,0.9,0.5,1.8,0.7,2.6
				c0.1,0.8,0.3,1.6,0.4,2.3c0.1,0.7,0.2,1.3,0.2,1.8c0,1,0.1,1.5,0.1,1.5s-0.1-0.5-0.3-1.5
				C3098.9,2248.5,3098.7,2247.9,3098.6,2247.3z"/>
		</g>
		<g>
			<g>
				<polygon class="st9" points="3349.9,1969.4 3349.9,2046.9 3358.2,2046.9 3358.2,1969.4 3358.2,1943.8 3349.9,1943.8 				"/>
				<rect x="3400.5" y="1943.8" class="st9" width="5.1" height="103"/>
				<rect x="3413.5" y="1943.8" class="st9" width="21.2" height="103"/>
				<rect x="3468.6" y="1943.8" class="st9" width="7" height="103"/>
				<rect x="3454.2" y="1943.8" class="st9" width="4.5" height="103"/>
				<rect x="3481.7" y="1943.8" class="st9" width="9.5" height="103"/>
				<rect x="3382.1" y="1943.8" class="st9" width="10.2" height="103"/>
				<rect x="3363.3" y="1943.8" class="st9" width="4.7" height="103"/>
				<rect x="3371.3" y="1943.8" class="st9" width="4.7" height="103"/>
				<rect x="3443.2" y="1943.8" class="st9" width="4.5" height="103"/>
			</g>
		</g>
	</g>
	<g>
		<g>
			<g>
				<polygon class="st6" points="2370.2,1696.5 2875,1696.5 2370.2,1320.7 				"/>
				<polygon class="st7" points="3069.3,1124.2 2370.2,1124.2 2370.2,1320.7 2875,1696.5 3069.3,1696.5 				"/>
			</g>
			<rect x="2354.8" y="1103.6" class="st8" width="729.9" height="205.6"/>
			<g>
				<g>
					<g>
						<polygon class="st9" points="2405.6,1682.4 2447,1682.4 2451.3,1682.4 2457.3,1682.4 2457.3,1664.7 2447,1664.7 2447,1672.1 
							2405.6,1672.1 2405.6,1664.7 2395.3,1664.7 2395.3,1682.4 2402,1682.4 						"/>
					</g>
					<g>
						<polygon class="st9" points="2414.8,1664.7 2437.8,1664.7 2437.8,1629.4 2448.1,1629.4 2426.3,1606.8 2404.5,1629.4 
							2414.8,1629.4 						"/>
					</g>
				</g>
			</g>
			<path class="st9" d="M2536.1,1629v-18.4h-10.7l-3,10.8l4.4,1.6l-6.5,18.1l3.8-17.1l-4.9-0.8l2.8-12.7h-21v18.4
				c0,10.7,6.4,19.6,14.9,21.2v28.7h-8.6c-0.9,0-1.7,0.8-1.7,1.7s0.8,1.7,1.7,1.7h22.6c0.9,0,1.7-0.8,1.7-1.7s-0.8-1.7-1.7-1.7h-8.6
				v-28.7C2529.7,1648.7,2536.1,1639.8,2536.1,1629z"/>
			<path class="st9" d="M2618.8,1615.4c-0.1,0-0.1,0-0.2,0c-1.6-0.3-3.2-0.6-5-0.7v-0.1v-1.5c0-1.6-1.3-3-3-3c-1.6,0-3,1.3-3,3v1.4
				v0.1c-29,2-30.5,32.8-30.5,32.8h19.4h11.1v26.4c0,0,0,0.1,0,0.1c-0.1,0.5-0.5,2.4-2.8,2.4c-0.7,0-1.2-0.2-1.7-0.7
				c-1.1-1.1-1.4-3.2-1.4-3.7c0.1-1.6-1.2-3.1-2.8-3.1c-1.6-0.1-3,1.2-3.1,2.8c-0.1,1.2,0.4,5.3,3.1,8.1c1.6,1.7,3.7,2.6,6,2.6
				c6.3,0,8.5-5.1,8.8-7.8c0-0.2,0-0.4,0-0.5c0-0.1,0-0.1,0-0.1v-26.4h30.6C2644.2,1647.5,2642.8,1620.5,2618.8,1615.4z
				 M2598.1,1622.3c-0.8,0.5-1.5,1.2-2.3,1.8c-0.8,0.7-1.5,1.4-2.3,2.1c-0.4,0.4-0.7,0.8-1.1,1.2c-0.3,0.4-0.7,0.8-1,1.2
				c-0.7,0.9-1.3,1.7-1.9,2.6c-0.3,0.4-0.6,0.9-0.8,1.4c-0.3,0.4-0.5,0.9-0.7,1.4c-0.2,0.4-0.4,0.9-0.6,1.4
				c-0.2,0.4-0.4,0.9-0.6,1.3c-0.4,0.9-0.6,1.7-0.9,2.5c-0.2,0.8-0.5,1.5-0.6,2.2c-0.1,0.7-0.3,1.2-0.4,1.7c-0.2,1-0.3,1.5-0.3,1.5
				s0-0.6,0.1-1.5c0-0.5,0.1-1.1,0.2-1.8c0.1-0.7,0.2-1.4,0.4-2.3c0.2-0.8,0.4-1.7,0.7-2.6c0.1-0.5,0.3-0.9,0.5-1.4
				c0.2-0.5,0.4-1,0.6-1.4c0.2-0.5,0.4-1,0.7-1.5c0.1-0.2,0.3-0.5,0.4-0.7l0.4-0.7c0.6-1,1.2-1.9,1.9-2.8c0.4-0.4,0.7-0.9,1.1-1.3
				c0.4-0.4,0.8-0.8,1.2-1.2c0.8-0.8,1.6-1.5,2.5-2.1c1.7-1.3,3.4-2.3,4.9-3.1c1.5-0.7,2.8-1.2,3.8-1.5c0.9-0.3,1.5-0.4,1.5-0.4
				s-2.1,0.8-4.9,2.6C2599.6,1621.2,2598.9,1621.7,2598.1,1622.3z M2607.6,1619.3c-0.2,0.4-0.4,0.8-0.6,1.2
				c-0.2,0.5-0.4,1.1-0.7,1.6c-0.2,0.6-0.5,1.3-0.8,2c-0.3,0.7-0.5,1.4-0.8,2.2c-0.3,0.8-0.5,1.6-0.8,2.4c-0.2,0.8-0.5,1.7-0.7,2.5
				c-0.2,0.9-0.4,1.7-0.6,2.5c-0.1,0.9-0.4,1.7-0.5,2.5c-0.1,0.8-0.3,1.6-0.4,2.3c-0.1,0.7-0.2,1.4-0.3,2.1
				c-0.1,0.6-0.2,1.2-0.2,1.8c-0.1,0.5-0.1,1-0.2,1.4c-0.1,0.8-0.2,1.2-0.2,1.2s0-0.4-0.1-1.2c0-0.4,0-0.9-0.1-1.4
				c0-0.5,0-1.1,0-1.8c0-0.7,0-1.4,0.1-2.1c0.1-0.8,0.1-1.6,0.2-2.4c0.1-0.8,0.2-1.7,0.4-2.5c0.2-0.9,0.4-1.7,0.6-2.6
				c0.2-0.9,0.5-1.7,0.7-2.6c0.3-0.8,0.6-1.6,0.9-2.4c0.2-0.4,0.3-0.8,0.5-1.1c0.2-0.4,0.3-0.7,0.5-1.1c0.3-0.7,0.7-1.3,1-1.9
				c0.7-1.2,1.3-2.1,1.8-2.7c0.5-0.6,0.8-0.9,0.8-0.9S2608,1618.6,2607.6,1619.3z M2619.9,1642.4c0,0.5-0.1,1-0.1,1.4
				c-0.1,0.8-0.1,1.2-0.1,1.2s-0.1-0.4-0.2-1.2c-0.1-0.4-0.1-0.9-0.2-1.4c-0.1-0.5-0.2-1.1-0.2-1.8s-0.2-1.4-0.3-2.1
				c-0.1-0.7-0.3-1.5-0.4-2.3c-0.1-0.8-0.4-1.6-0.5-2.5c-0.2-0.8-0.4-1.7-0.6-2.5c-0.2-0.8-0.4-1.7-0.7-2.5
				c-0.3-0.8-0.5-1.6-0.8-2.4c-0.3-0.8-0.5-1.5-0.8-2.2c-0.2-0.7-0.5-1.4-0.8-2c-0.3-0.6-0.5-1.1-0.7-1.6c-0.2-0.5-0.4-0.9-0.6-1.2
				c-0.4-0.7-0.6-1.1-0.6-1.1s0.3,0.3,0.8,0.9c0.5,0.6,1.1,1.5,1.8,2.7c0.3,0.6,0.7,1.2,1,1.9c0.2,0.3,0.3,0.7,0.5,1.1
				c0.1,0.4,0.3,0.8,0.5,1.1c0.3,0.8,0.6,1.6,0.9,2.4c0.2,0.8,0.5,1.7,0.7,2.6c0.2,0.9,0.4,1.7,0.6,2.6c0.1,0.9,0.3,1.7,0.4,2.5
				c0.1,0.8,0.2,1.6,0.2,2.4s0.1,1.5,0.1,2.1C2620,1641.3,2620,1641.9,2619.9,1642.4z M2636,1641.3c-0.1-0.7-0.4-1.4-0.6-2.2
				c-0.3-0.8-0.6-1.6-0.9-2.5c-0.2-0.4-0.4-0.9-0.6-1.3c-0.2-0.4-0.4-0.9-0.6-1.4c-0.2-0.5-0.5-0.9-0.7-1.4
				c-0.3-0.5-0.5-0.9-0.8-1.4c-0.6-0.9-1.2-1.8-1.9-2.6c-0.3-0.4-0.7-0.8-1-1.2c-0.4-0.4-0.7-0.8-1.1-1.2c-0.8-0.8-1.5-1.5-2.3-2.1
				c-0.8-0.6-1.6-1.3-2.3-1.8c-0.8-0.6-1.5-1-2.2-1.5c-2.8-1.7-4.9-2.6-4.9-2.6s0.6,0.1,1.5,0.4c0.9,0.3,2.2,0.8,3.8,1.5
				s3.2,1.8,4.9,3.1c0.8,0.6,1.7,1.4,2.5,2.1c0.4,0.4,0.8,0.8,1.2,1.2c0.4,0.4,0.8,0.9,1.1,1.3c0.7,0.9,1.4,1.8,1.9,2.8l0.4,0.7
				c0.1,0.2,0.3,0.5,0.4,0.7c0.3,0.5,0.5,1,0.7,1.5c0.2,0.5,0.4,0.9,0.6,1.4c0.2,0.5,0.4,0.9,0.5,1.4c0.3,0.9,0.5,1.8,0.7,2.6
				c0.1,0.8,0.3,1.6,0.4,2.3c0.1,0.7,0.2,1.3,0.2,1.8c0,1,0.1,1.5,0.1,1.5s-0.1-0.5-0.3-1.5C2636.4,1642.5,2636.2,1642,2636,1641.3z
				"/>
		</g>
		<g>
			<g>
				<polygon class="st9" points="2887.4,1363.5 2887.4,1440.9 2895.7,1440.9 2895.7,1363.5 2895.7,1337.9 2887.4,1337.9 				"/>
				<rect x="2938" y="1337.9" class="st9" width="5.1" height="103"/>
				<rect x="2951" y="1337.9" class="st9" width="21.2" height="103"/>
				<rect x="3006.1" y="1337.9" class="st9" width="6.9" height="103"/>
				<rect x="2991.7" y="1337.9" class="st9" width="4.6" height="103"/>
				<rect x="3019.2" y="1337.9" class="st9" width="9.5" height="103"/>
				<rect x="2919.6" y="1337.9" class="st9" width="10.2" height="103"/>
				<rect x="2900.8" y="1337.9" class="st9" width="4.7" height="103"/>
				<rect x="2908.8" y="1337.9" class="st9" width="4.7" height="103"/>
				<rect x="2980.7" y="1337.9" class="st9" width="4.6" height="103"/>
			</g>
		</g>
	</g>
</g>
<g>
	<g>
		<g>
			<path class="st11" d="M1783.8,2033.6v-19.4h-0.9l-78.6,45.4c5.1,5.6,11.2,10.3,18.1,13.8v13.5h0.1v0.9h58.4v-0.9h3V2072
				c8.4-4.8,15.6-11.4,21.1-19.3C1796.1,2048.5,1788.8,2041.8,1783.8,2033.6z"/>
			<path class="st12" d="M1722.3,2003.3v25.4h-0.2c-3.8,8.4-9.9,15.6-17.4,20.8l-2.6,7.5c0.7,0.9,1.4,1.7,2.2,2.5l78.5-37.2
				L1722.3,2003.3z"/>
		</g>
		<g>
			<path class="st11" d="M1674.4,1923.9c0,56.2,35.3,101.9,79.2,103.1v-185.9C1710.5,1842.5,1674.4,1868.5,1674.4,1923.9z"/>
			<path class="st13" d="M1757.3,1841c-1.2,0-2.5,0-3.7,0.1V2027c0.6,0,1.2,0.1,1.9,0.1c44.8,0,81.1-46.2,81.1-103.2
				S1802.1,1841,1757.3,1841z"/>
		</g>
		<path class="st14" d="M1803.2,1891.7c0,0-28.6,47-81.1,42.4c0,0,17.5-5.5,17.5-14.7c0,0-12.9,9.2-25.8,12c0,0,9.2-12,7.4-17.5
			c0,0-29.5,6.4-30.4,20.3l-6.4,15.7l-22.1-25.8c0,0-8.3-70,57.1-89.4c65.4-19.3,83.6,11.6,83.6,11.6s28.9,10.2,38.1,73.4
			c0,0-15.8,10.7-13.9,24.6C1827.2,1944.2,1806,1923,1803.2,1891.7z"/>
		<path class="st13" d="M1828.4,1930.4c-1.7,11.9,1.6,22.2,7.5,23.1c5.9,0.9,12.1-8.1,13.8-20c1.8-11.9-1.6-22.2-7.5-23.1
			C1836.3,1909.5,1830.1,1918.5,1828.4,1930.4z"/>
		<path class="st11" d="M1679.9,1929.4c1.1,11.7-2.3,21.7-7.7,22.2s-10.7-8.6-11.8-20.3c-1.1-11.7,2.3-21.7,7.7-22.2
			C1673.5,1908.6,1678.8,1917.7,1679.9,1929.4z"/>
	</g>
	<path class="st15" d="M1620.2,2113.4l-0.1,0.4C1620.2,2113.6,1620.2,2113.5,1620.2,2113.4L1620.2,2113.4z"/>
	<path class="st16" d="M1890.9,2109.7L1890.9,2109.7l-10.9-33.9c0,0-7.5-13.5-21-16.8l-3.7-0.8c-2.1-0.3-4.1-0.3-6.1,0l-25.2-0.6
		c-5-0.2-9.8-1.2-14.3-2.9l-9.5-5.6l1-1.6l-4-2.9c-44.8,19.1-90.2,0-90.2,0l-2.3,3.6l0.6,1.1l-6.2,3.7c0-0.1-0.1-0.1-0.1-0.1
		c-6.1,3.1-12.8,4.9-20,5.3v0h-28.3l0,0.1c-11.5-2.2-24.6,6.7-30.4,17.6c-0.1,0.1-0.1,0.2-0.2,0.3l-3.2,10.2l-28.8,90.6l12.8-30.4
		l32.5-5.7l22.3,35.9l2.9,246.1l94.3,0.7l94.8,0.8l4.7-232.1l8.4,28l5.8-76.6c6.8,8.6,9.1,26.9,28.3,24.7L1890.9,2109.7z"/>
	<g>
		<path class="st17" d="M1691.3,2144.2l-0.6-87.8c-8.7,2.1-20.7,0.8-31.1,2l-6.1,85.8H1691.3z"/>
		<path class="st18" d="M1853,2144.2l-11.1-86.2c-10.7-1.6-15.6,0.8-31.1-2.8l0.1,89H1853z"/>
	</g>
	<g>
		<g>
			<path class="st19" d="M1668.6,2172.4h12.3c4.1,0,7.4-3.3,7.4-7.4v-1.2c0-4.1-3.3-7.4-7.4-7.4h-12.3c-4.1,0-7.4,3.3-7.4,7.4v1.2
				C1661.2,2169.1,1664.5,2172.4,1668.6,2172.4z"/>
			<path class="st17" d="M1653.3,2149.7v281.4l0.1,0v361.1c0,23.4,19,42.4,42.4,42.4s42.4-19,42.4-42.4v-333v0
				c3.5-1.6,7.4-2.9,11.7-3.1v-47.4v-259.1L1653.3,2149.7L1653.3,2149.7z M1661.2,2163.8c0-4.1,3.3-7.4,7.4-7.4h12.3
				c4.1,0,7.4,3.3,7.4,7.4v1.2c0,4.1-3.3,7.4-7.4,7.4h-12.3c-4.1,0-7.4-3.3-7.4-7.4V2163.8z"/>
		</g>
		<path class="st18" d="M1852.6,2391.4v-241.7H1750v259.1v22.4v25c5.6-0.4,11.6,0.8,18,4.6v331.5c0,23.4,19,42.4,42.4,42.4
			s42.4-19,42.4-42.4v-400.9L1852.6,2391.4L1852.6,2391.4z M1818.7,2162.6c0-4.1,3.3-7.4,7.4-7.4h12.3c4.1,0,7.4,3.3,7.4,7.4v1.2
			c0,4.1-3.3,7.4-7.4,7.4H1826c-4.1,0-7.4-3.3-7.4-7.4V2162.6z"/>
	</g>
	<g>
		<path class="st20" d="M1722.4,1813.3C1722.4,1813.3,1722.4,1813.3,1722.4,1813.3c-75,17.4-60,98.4-60,98.4
			c7.1-4.9,16-8.5,25.4-11.2C1688.7,1881,1694.7,1846.7,1722.4,1813.3z"/>
		<path class="st21" d="M1687.9,1900.5c27.1-7.8,58.6-7.8,65.1-7.5v-22.3c-15.8,0-28.5-6.3-28.5-14.1s12.8-14.1,28.5-14.1v-27.8
			c-4.7,0-8.5-2-8.8-4.5c-8,0.5-15.2,1.5-21.8,3c0,0,0,0,0,0C1694.7,1846.7,1688.7,1881,1687.9,1900.5z"/>
		<path class="st22" d="M1753,1814.8v27.8l0,0c15.8,0,28.5,6.3,28.5,14.1c0,7.8-12.8,14.1-28.5,14.1l0,0v22.3c0.1,0,0.2,0,0.4,0
			c5.6-0.3,37.4-0.4,64.8,7.4c-0.8-19.5-6.8-53.8-34.5-87.2c0,0,0,0,0,0c-6.6-1.5-13.8-2.6-21.8-3
			C1761.6,1812.7,1757.7,1814.8,1753,1814.8z"/>
		<path class="st23" d="M1844.8,1892.5c0-0.1,0-0.1,0-0.1c0-1.1-0.1-2.2-0.1-3.3c0-0.1,0-0.2,0-0.3c-0.1-1.1-0.1-2.2-0.2-3.4
			c0-0.1,0-0.2,0-0.3c-0.1-1.2-0.2-2.4-0.4-3.6c0-0.1,0-0.1,0-0.2c-0.5-3.9-1.2-8-2.2-12.2c0,0,0,0,0,0c-0.4-1.4-0.7-2.8-1.2-4.2
			c0,0,0,0,0-0.1c-6-19.8-19.8-40.4-50.1-49.7c-0.1,0-0.1,0-0.1,0c-2.1-0.6-4.4-1.2-6.7-1.8c0,0,0,0,0,0c0,0,0,0,0,0
			c27.8,33.4,33.7,67.7,34.5,87.2c9.4,2.7,18.3,6.3,25.4,11.2c0,0,0.3-1.5,0.6-4.1c0-0.2,0-0.4,0.1-0.6c0-0.4,0.1-0.8,0.1-1.2
			c0-0.4,0.1-0.8,0.1-1.1c0-0.3,0-0.5,0.1-0.8c0-0.6,0.1-1.2,0.1-1.9c0-0.2,0-0.5,0-0.7c0-0.7,0.1-1.5,0.1-2.2c0-0.2,0-0.4,0-0.6
			c0-0.9,0-1.7,0.1-2.6c0-0.1,0-0.2,0-0.3C1844.8,1894.5,1844.8,1893.5,1844.8,1892.5z"/>
		<path class="st24" d="M1687.9,1900.5c-9.4,2.7-18.3,6.3-25.4,11.2c0,0,8.9,27.6,31.8,27.6c22.7,0,19.9-12.6,58.8-12.8l0,0v-18.4
			V1893C1746.5,1892.7,1715,1892.7,1687.9,1900.5z"/>
		<path class="st25" d="M1818.2,1900.5c-27.4-7.9-59.2-7.8-64.8-7.4c-0.1,0-0.2,0-0.4,0v15.1v18.4c38.9,0.2,36.1,12.8,58.8,12.8
			c22.9,0,31.8-27.6,31.8-27.6C1836.5,1906.8,1827.6,1903.2,1818.2,1900.5z"/>
		<path class="st26" d="M1724.5,1856.7c0,7.8,12.8,14.1,28.5,14.1v-28.2C1737.3,1842.6,1724.5,1848.9,1724.5,1856.7z"/>
		<path class="st27" d="M1781.6,1856.7c0-7.8-12.8-14.1-28.5-14.1l0,0v28.2l0,0C1768.8,1870.7,1781.6,1864.4,1781.6,1856.7z"/>
		<path class="st20" d="M1744.2,1810c0,0.1,0,0.2,0,0.3c0.2,2.5,4.1,4.5,8.8,4.5v-4.8v-4.8C1748.2,1805.1,1744.2,1807.3,1744.2,1810
			z"/>
		<path class="st23" d="M1753,1805.1v4.8v4.8c4.7,0,8.5-2,8.8-4.5c0-0.1,0-0.2,0-0.3C1761.8,1807.3,1757.9,1805.1,1753,1805.1z"/>
	</g>
	<g>
		<path class="st28" d="M1683.4,2231.2v74.8c0,7.1,5.7,12.8,12.8,12.8h53.8v-87.6H1683.4z"/>
		<path class="st29" d="M1750,2318.8h52.8c7.1,0,12.8-5.7,12.8-12.8v-74.8H1750V2318.8z"/>
		<path class="st30" d="M1750,2206.3h-53.8c-7.1,0-12.8,5.7-12.8,12.8v12.1h66.6L1750,2206.3L1750,2206.3z"/>
		<path class="st31" d="M1802.8,2206.3H1750v24.9h65.6v-12.1C1815.6,2212,1809.8,2206.3,1802.8,2206.3z"/>
	</g>
	<g>
		<path class="st32" d="M1755.2,2222.2c0-2.9-2.3-5.2-5.2-5.2v10.5C1752.8,2227.4,1755.2,2225.1,1755.2,2222.2z"/>
		<path class="st33" d="M1749.9,2217c-2.9,0-5.2,2.4-5.2,5.2s2.4,5.2,5.2,5.2c0,0,0,0,0.1,0L1749.9,2217
			C1749.9,2217,1749.9,2217,1749.9,2217z"/>
	</g>
	<path class="st12" d="M1895.7,2362.1c-6.2,12.8-21.6,18.3-34.4,12.1c-2.3-1.1-4.4-2.5-6.2-4.1c-8.2-7.5-11-19.7-5.9-30.3l51.1-97.1
		l45.2,14.1L1895.7,2362.1z"/>
	<path class="st16" d="M1906.5,2352.4l51.6-103.9c4.5-9.1,4.2-19.8-0.8-28.6l-77.5-144l-23.9,69.3l40.2,90.7l-44.4,89.4
		L1906.5,2352.4z"/>
	<g>
		
			<rect x="1575.4" y="2309.9" transform="matrix(0.7659 -0.6429 0.6429 0.7659 -1137.8535 1618.6759)" class="st34" width="157.3" height="124.2"/>
		
			<rect x="1583.7" y="2316.5" transform="matrix(0.7659 -0.6429 0.6429 0.7659 -1137.87 1618.676)" class="st35" width="140.8" height="111.1"/>
		<g>
			<g>
				<path class="st36" d="M1732.3,2336.3l-15.2-17l-14.1-17.9c0,0-5,5.6-12.7,7.2l15.8,18.8l1.1,1.4l16,19.1
					C1726.2,2340.5,1732.3,2336.3,1732.3,2336.3z"/>
				<path class="st37" d="M1723.9,2347.8c-1.1,0.9-2.8,0.8-3.8-0.3l-30.3-36.1c-0.9-1.1-0.8-2.8,0.3-3.8l0,0
					c1.1-0.9,2.8-0.8,3.8,0.3l30.3,36.1C1725.1,2345.2,1725,2346.9,1723.9,2347.8L1723.9,2347.8z"/>
				<path class="st37" d="M1732.7,2337.1c-1,0.9-2.5,0.7-3.4-0.3l-27.3-32.6c-0.9-1-0.7-2.5,0.3-3.4l0,0c1-0.9,2.5-0.7,3.4,0.3
					l27.3,32.6C1733.9,2334.7,1733.7,2336.2,1732.7,2337.1L1732.7,2337.1z"/>
			</g>
			<g>
				<path class="st37" d="M1728.8,2327.1c5.8-4.9,6.6-13.5,1.7-19.3c-4.9-5.8-13.5-6.5-19.3-1.7l-3.1,2.6l17.6,21L1728.8,2327.1z
					 M1719.4,2317.2c-1.9-2.2-1.6-5.6,0.6-7.5c2.2-1.9,5.6-1.6,7.5,0.7c1.9,2.2,1.6,5.6-0.7,7.5
					C1724.6,2319.7,1721.3,2319.4,1719.4,2317.2z"/>
			</g>
		</g>
		<g>
			
				<rect x="1658" y="2306.3" transform="matrix(0.7658 -0.6431 0.6431 0.7658 -1096.5052 1610.062)" class="st37" width="8.3" height="8.3"/>
			
				<rect x="1689.2" y="2311.4" transform="matrix(0.7659 -0.6429 0.6429 0.7659 -1113.0963 1638.2107)" class="st37" width="8.3" height="72.7"/>
		</g>
		<g>
			
				<rect x="1645.7" y="2316.4" transform="matrix(0.7658 -0.643 0.643 0.7658 -1105.8389 1604.2947)" class="st37" width="8.3" height="8.3"/>
			
				<rect x="1675.8" y="2322.2" transform="matrix(0.7659 -0.6429 0.6429 0.7659 -1121.8488 1631.6696)" class="st37" width="8.3" height="68.8"/>
		</g>
		<g>
			
				<rect x="1633.7" y="2326.6" transform="matrix(0.7659 -0.6429 0.6429 0.7659 -1115.1292 1598.5626)" class="st37" width="8.3" height="8.3"/>
			
				<rect x="1661" y="2333.2" transform="matrix(0.7659 -0.6429 0.6429 0.7659 -1129.5948 1623.7208)" class="st37" width="8.3" height="60.1"/>
		</g>
		<g>
			
				<rect x="1621.9" y="2336.8" transform="matrix(0.766 -0.6429 0.6429 0.766 -1124.4149 1593.2218)" class="st37" width="8.3" height="8.3"/>
			
				<rect x="1647.1" y="2344" transform="matrix(0.7659 -0.6429 0.6429 0.7659 -1138.0193 1616.651)" class="st37" width="8.3" height="54.4"/>
		</g>
		<g>
			
				<rect x="1609.9" y="2346.8" transform="matrix(0.766 -0.6429 0.6429 0.766 -1133.6124 1587.842)" class="st37" width="8.3" height="8.3"/>
			
				<rect x="1640.3" y="2352.2" transform="matrix(0.7659 -0.6429 0.6429 0.7659 -1150.0414 1616.0591)" class="st37" width="8.3" height="70.5"/>
		</g>
		<g>
			
				<rect x="1597.9" y="2357" transform="matrix(0.766 -0.6429 0.6429 0.766 -1142.9967 1582.4645)" class="st37" width="8.3" height="8.3"/>
			
				<rect x="1628.2" y="2362.2" transform="matrix(0.7659 -0.6429 0.6429 0.7659 -1159.3246 1610.6779)" class="st37" width="8.3" height="70.5"/>
		</g>
	</g>
	<path class="st12" d="M1606.2,2362.1c6.2,12.8,21.6,18.3,34.4,12.1c2.3-1.1,4.4-2.5,6.2-4.1c8.2-7.5,11-19.7,5.9-30.3l-51.1-97.1
		l-45.2,14.1L1606.2,2362.1z"/>
	<path class="st16" d="M1595.4,2352.4l-51.6-103.9c-4.5-9.1-4.2-19.8,0.8-28.6l77.5-144l30.4,64.3l-46.7,95.6l44.4,89.4
		L1595.4,2352.4z"/>
</g>
<rect x="2039.2" y="1709.6" class="st10" width="70.4" height="206.6"/>
<rect x="2469.3" y="1709.6" class="st10" width="70.4" height="206.6"/>
<rect x="2467" y="1103.2" class="st10" width="70.4" height="206.6"/>
<rect x="2894.6" y="1102.2" class="st10" width="70.4" height="206.6"/>
<rect x="2915.8" y="1710" class="st10" width="70.4" height="206.6"/>
<rect x="3370.4" y="1709.5" class="st10" width="70.4" height="206.6"/>
</svg>
